<?xml version="1.0" encoding="utf-8"?>
<!-- Generator: Adobe Illustrator 20.1.0, SVG Export Plug-In . SVG Version: 6.00 Build 0)  -->
<svg version="1.1" id="Layer_1" xmlns="http://www.w3.org/2000/svg" xmlns:xlink="http://www.w3.org/1999/xlink" x="0px" y="0px"
	 viewBox="0 0 553 559.9" style="enable-background:new 0 0 553 559.9;" xml:space="preserve">
<style type="text/css">
	.st0{display:none;}
	.st1{display:inline;fill:#B02A38;}
	.st2{display:inline;fill:#2B2A29;}
	.st3{fill:#B02A38;}
</style>
<g id="Layer_1_1_" class="st0">
	<path class="st1" d="M492,120c-11.9-5.2-42.7-13.8-57.6-4.4c-12.3,7.7-15.3,24.2-3,35.2c9.1,8,26,12,40.2,16
		c26.9,7.5,53.2,37.8,41.4,76.6c-3.3,11.1-9,22.3-16,30.7c-7.1,8.4-71.8,74.6-112.3,111.4c0,0-27-28.1-27-28.7
		c27-27.6,54.3-48.9,71.2-85.9c30.7-67-12.1-158.5-108.9-158.5c-91.5,0-130.9,92.9-113.9,141.1c12.9,36.6,32.4,57.8,55.7,81.1
		c7.1,7.1,14.2,14.2,21.3,21.3l-27.9,29.5c-28.9-29.2-57.9-57.3-86.8-86.5c-16-16-34.6-31.3-41-56.9c-9.6-38.1,17.9-67.9,44.3-76.2
		c14.6-4.6,32.1-3.1,40.1-11.5c21-21.9,1.5-44.4-28.5-42.2c-8.1,0-18,1.6-25.5,3.7c-37.9,11.1-66.1,43.5-76.2,70.5
		c-32.8,87.5,36.7,134.7,75.7,173.8c20.5,20.5,36.8,38.6,57.3,59.1c6.9,6.9,23.2,29.2,41,29.2c14.9,0,26.7-15.2,39.5-29.5
		c11.4-12.6,25-27.3,25-27.3s13.7,14.4,25.3,26.8c13.6,14.4,26.3,30.7,39.4,30.1c14.4-0.7,27.9-17.2,40.1-29.2
		c31.1-30.8,61.9-62.8,75.4-76.4c31.3-31.3,62.2-58.9,66.4-108.2C571.4,177.9,537.8,140.1,492,120 M319.9,320.8
		c-18-17.3-64.8-53.4-64.8-91.7c0-49.3,43.5-66.3,64.8-66.3c47,0,64.7,33.8,64.7,66.8C384.7,268.4,336.3,304.7,319.9,320.8z"/>
	<polygon class="st2" points="1251.1,353.1 1232.6,387.3 1232.6,412.3 1215,412.3 1215,387.3 1195.1,353.1 1214.9,353.1 
		1225.3,372.6 1235.2,353.1 	"/>
	<path class="st2" d="M1195.7,379.1v33.1h-8.9c-0.7-2.5-1.5-4.5-2.4-6.2c-3.7,4.7-9.1,7.1-16.3,7.1c-7.6,0-13.9-2.7-18.8-8
		s-7.4-12.5-7.4-21.6c0-8.8,2.4-16.3,7.1-22.3c4.8-6,11.8-9,21.2-9c7,0,12.7,1.8,17,5.4s7.1,8.7,8.4,15.2l-17.5,1.7
		c-0.9-6.1-3.6-9.2-8.1-9.2c-6,0-9,5.7-9,17c0,6.8,1,11.3,2.9,13.5s4.2,3.3,7,3.3c2.2,0,4.1-0.7,5.6-2s2.3-3.1,2.4-5.4h-9.8v-12.6
		H1195.7L1195.7,379.1z"/>
	<path class="st2" d="M1129.2,360.4c-5.2-5.4-11.9-8.1-20.1-8.1c-8.9,0-15.9,2.9-20.9,8.6c-5,5.8-7.5,13.1-7.5,21.9
		c0,9.2,2.6,16.6,7.9,22.1c5.2,5.5,12,8.3,20.3,8.3s15-2.8,20.2-8.5s7.8-13.2,7.8-22.6C1137,373,1134.4,365.8,1129.2,360.4z
		 M1115.5,395.7c-1.3,2.7-3.6,4-6.6,4c-5.7,0-8.6-5.5-8.6-16.5c0-11.7,3-17.6,9-17.6c5.5,0,8.3,5.1,8.3,15.4
		C1117.5,388.2,1116.8,393.1,1115.5,395.7z"/>
	<polygon class="st2" points="1077.9,397.7 1077.9,412.3 1036.5,412.3 1036.5,353.1 1054.6,353.1 1054.6,397.7 	"/>
	<path class="st2" d="M1021.1,360.4c-5.2-5.4-11.9-8.1-20.1-8.1c-8.9,0-15.8,2.9-20.9,8.6c-5,5.8-7.5,13.1-7.5,21.9
		c0,9.2,2.6,16.6,7.9,22.1c5.2,5.5,12,8.3,20.3,8.3s15-2.8,20.2-8.5c5.2-5.7,7.9-13.2,7.9-22.6
		C1028.8,373,1026.2,365.8,1021.1,360.4z M1007.3,395.7c-1.3,2.7-3.6,4-6.6,4c-5.8,0-8.6-5.5-8.6-16.5c0-11.7,3-17.6,9-17.6
		c5.5,0,8.3,5.1,8.3,15.4C1009.3,388.2,1008.7,393.1,1007.3,395.7z"/>
	<rect x="946.8" y="353.1" class="st2" width="18.2" height="59.1"/>
	<path class="st2" d="M931.7,362c-4.9-5.9-12.4-8.8-22.3-8.8h-22.9v59.1h24c8.5,0,15.3-2.8,20.6-8.3s8-12.7,8-21.5
		C939.1,374.7,936.7,367.9,931.7,362z M917.1,394.3c-2.1,2.9-4.6,4.4-7.6,4.4h-4.7v-32.2h4.7c3.5,0,6.1,1.6,8,4.7
		c1.8,3.1,2.7,6.9,2.7,11.2C920.2,387.4,919.1,391.4,917.1,394.3z"/>
	<path class="st2" d="M867.3,386.5c4.2-2,7-4.3,8.4-6.9s2.1-5.6,2.1-9c0-5.2-1.9-9.4-5.6-12.6c-3.8-3.2-9.1-4.8-15.9-4.8h-30.9v59.1
		h18.2v-22.6h5.6l8.7,22.6H878L867.3,386.5z M856.9,375.6c-1.4,1-3.2,1.4-5.5,1.4h-7.8v-11.4h8.4c4.7,0,7,1.9,7,5.7
		C858.9,373.3,858.2,374.7,856.9,375.6z"/>
	<path class="st2" d="M801.5,353.1h-19.2L764,412.3h14.7l3.5-11.6h16.1l3.3,11.6h18.5L801.5,353.1z M785.5,387.7l4.7-17.1l4.7,17.1
		H785.5z"/>
	<path class="st2" d="M746.6,389.7l16.6,1c-0.8,7.2-3.5,12.8-8,16.6c-4.6,3.9-10.2,5.8-16.8,5.8c-8,0-14.5-2.7-19.4-8
		s-7.4-12.6-7.4-22c0-9.3,2.3-16.7,7-22.4c4.7-5.7,11.2-8.5,19.5-8.5c7.8,0,13.8,2.2,18,6.5s6.6,10,7.1,17.2l-16.9,0.9
		c0-3.9-0.8-6.8-2.3-8.5c-1.5-1.8-3.3-2.6-5.3-2.6c-5.7,0-8.5,5.7-8.5,17.2c0,6.4,0.7,10.8,2.2,13.1c1.5,2.3,3.6,3.5,6.3,3.5
		C743.4,399.5,746.1,396.2,746.6,389.7z"/>
	<polygon class="st2" points="680.5,390.1 661.2,390.1 661.2,412.3 643.6,412.3 643.6,353.1 686.3,353.1 686.3,367.2 661.2,367.2 
		661.2,376.8 680.5,376.8 	"/>
	<path class="st2" d="M628.2,360.4c-5.2-5.4-11.9-8.1-20.1-8.1c-8.9,0-15.8,2.9-20.9,8.6c-5,5.8-7.5,13.1-7.5,21.9
		c0,9.2,2.6,16.6,7.9,22.1c5.3,5.5,12,8.3,20.3,8.3s15-2.8,20.2-8.5s7.8-13.2,7.8-22.6C636,373,633.4,365.8,628.2,360.4z
		 M614.4,395.7c-1.3,2.7-3.6,4-6.6,4c-5.7,0-8.6-5.5-8.6-16.5c0-11.7,3-17.6,9-17.6c5.5,0,8.3,5.1,8.3,15.4
		C616.5,388.2,615.8,393.1,614.4,395.7z"/>
	<polygon class="st2" points="1089.1,261.8 1070.6,295.9 1070.6,320.9 1053,320.9 1053,295.9 1033.1,261.8 1052.9,261.8 
		1063.3,281.2 1073.2,261.8 	"/>
	<polygon class="st2" points="1019.4,276 1019.4,320.9 1002.3,320.9 1002.3,276 990,276 990,261.8 1031.7,261.8 1031.7,276 	"/>
	<polygon class="st2" points="988,306.8 988,320.9 943.5,320.9 943.5,261.8 988,261.8 988,275.5 961.4,275.5 961.4,284 982.9,284 
		982.9,297.2 961.4,297.2 961.4,306.8 	"/>
	<rect x="915.1" y="261.8" class="st2" width="18.2" height="59.1"/>
	<path class="st2" d="M891.8,298.4l16.6,1c-0.8,7.2-3.5,12.8-8,16.6c-4.6,3.9-10.2,5.8-16.8,5.8c-8,0-14.5-2.7-19.4-8
		s-7.4-12.6-7.4-22c0-9.3,2.3-16.7,7-22.4c4.7-5.7,11.2-8.5,19.5-8.5c7.8,0,13.8,2.2,18,6.5s6.6,10,7.1,17.2l-16.9,0.9
		c0-3.9-0.8-6.8-2.3-8.5c-1.5-1.8-3.3-2.6-5.3-2.6c-5.7,0-8.5,5.7-8.5,17.2c0,6.4,0.7,10.8,2.2,13.1c1.5,2.3,3.6,3.5,6.3,3.5
		C888.6,308.2,891.3,304.9,891.8,298.4z"/>
	<path class="st2" d="M844,269.1c-5.2-5.4-11.9-8.1-20.1-8.1c-8.9,0-15.9,2.9-20.9,8.6c-5,5.8-7.5,13.1-7.5,21.9
		c0,9.2,2.6,16.6,7.9,22.1c5.2,5.5,12,8.3,20.3,8.3s15-2.8,20.2-8.5s7.8-13.2,7.8-22.6C851.8,281.7,849.2,274.5,844,269.1z
		 M830.3,304.4c-1.3,2.7-3.6,4-6.6,4c-5.7,0-8.6-5.5-8.6-16.5c0-11.7,3-17.6,9-17.6c5.5,0,8.3,5.1,8.3,15.4
		C832.3,296.8,831.6,301.7,830.3,304.4z"/>
	<path class="st2" d="M738.2,303.7l16.8-3c1.4,4.8,5,7.2,10.9,7.2c4.6,0,6.8-1.2,6.8-3.6c0-1.3-0.5-2.3-1.6-3
		c-1-0.7-2.9-1.3-5.6-1.9c-10.3-2-17-4.6-19.9-7.8c-2.9-3.2-4.4-7-4.4-11.3c0-5.6,2.1-10.2,6.3-13.9c4.2-3.7,10.3-5.5,18.2-5.5
		c12,0,20,4.8,23.8,14.5l-15,4.6c-1.6-4-4.7-5.9-9.5-5.9c-4,0-5.9,1.2-5.9,3.7c0,1.1,0.4,2,1.3,2.6c0.9,0.6,2.6,1.2,5.2,1.7
		c7.1,1.5,12.1,2.8,15.1,3.9s5.4,3.1,7.4,5.9s3,6.1,3,9.9c0,6-2.4,10.8-7.3,14.6c-4.8,3.7-11.2,5.6-19.1,5.6
		C750.5,321.8,741.6,315.8,738.2,303.7z"/>
	<path class="st2" d="M1150.9,229.6h-14.8l-16.3-26.1c-2.1-3.3-4.2-7.4-6.2-12.3c1,3.8,1.4,7,1.4,9.7v28.6h-14.7v-59.1h17.1
		l13.8,21.7c2.7,4.3,4.8,8.1,6.2,11.4c-0.9-5.1-1.4-10.2-1.4-15.5v-17.5h14.8L1150.9,229.6L1150.9,229.6z"/>
	<path class="st2" d="M1076.5,170.5h-19.2l-18.3,59.1h14.7l3.5-11.6h16.1l3.3,11.6h18.5L1076.5,170.5z M1060.5,205l4.7-17.1
		l4.7,17.1H1060.5z"/>
	<rect x="1015.5" y="170.5" class="st2" width="18.2" height="59.1"/>
	<path class="st2" d="M996.2,203.8c4.2-2,7-4.3,8.4-6.9c1.4-2.6,2.1-5.6,2.1-9c0-5.2-1.9-9.4-5.7-12.6c-3.8-3.2-9.1-4.8-15.9-4.8
		h-30.9v59.1h18.2V207h5.6l8.7,22.6h20.1L996.2,203.8z M985.7,193c-1.4,1-3.2,1.4-5.5,1.4h-7.7v-11.3h8.4c4.7,0,7,1.9,7,5.7
		C987.8,190.6,987.1,192,985.7,193z"/>
	<path class="st2" d="M930.4,170.5h-19.2l-18.3,59.1h14.7l3.5-11.6h16.1l3.3,11.6H949L930.4,170.5z M914.4,205l4.7-17.1l4.7,17.1
		H914.4z"/>
	<path class="st2" d="M888.3,196.4v33.1h-8.9c-0.7-2.5-1.5-4.5-2.4-6.2c-3.7,4.7-9.1,7.1-16.3,7.1c-7.6,0-13.9-2.7-18.8-8
		c-4.9-5.3-7.4-12.5-7.4-21.6c0-8.8,2.4-16.3,7.1-22.3c4.8-6,11.8-9,21.2-9c7,0,12.7,1.8,17,5.4c4.3,3.6,7.1,8.7,8.4,15.2l-17.5,1.7
		c-0.9-6.1-3.6-9.2-8.1-9.2c-6,0-9,5.7-9,17c0,6.8,1,11.3,2.9,13.5s4.2,3.3,7,3.3c2.2,0,4.1-0.7,5.6-2s2.3-3.1,2.4-5.4h-9.8v-12.6
		H888.3L888.3,196.4z"/>
	<polygon class="st2" points="831.6,215 831.6,229.6 790.1,229.6 790.1,170.5 808.3,170.5 808.3,215 	"/>
	<path class="st2" d="M780.5,170.5v39.1c0,7.4-2.2,12.7-6.6,16c-4.4,3.2-10.2,4.9-17.2,4.9c-7.5,0-13.4-1.6-18-4.7
		s-6.8-8.2-6.8-15.2v-40.1h18.4v37.9c0,2.8,0.6,4.9,1.8,6.2s3.1,2,5.7,2c2.2,0,4-0.5,5.4-1.4s2.3-2,2.5-3.2c0.3-1.2,0.4-3.5,0.4-6.9
		v-34.6H780.5L780.5,170.5z"/>
	<path class="st2" d="M713.7,198.8c3.3-0.9,5.7-2.5,7.4-4.9s2.5-5,2.5-8c0-4-1.4-7.6-4.3-10.8c-2.9-3.1-7.4-4.7-13.6-4.7h-30v59.1
		h28.2c8.8,0,14.6-1.7,17.3-5.2s4-7.4,4-11.8C725.1,205.3,721.3,200.7,713.7,198.8z M692.2,183.1h8.2c4.1,0,6.1,1.6,6.1,4.9
		c0,1.2-0.4,2.4-1.3,3.4c-0.9,1.1-2.4,1.6-4.5,1.6h-8.5V183.1z M706,214.8c-1,1.1-2.7,1.6-4.9,1.6h-8.9v-10.8h8.3
		c2.7,0,4.5,0.6,5.5,1.7c1,1.1,1.5,2.4,1.5,3.8C707.6,212.5,707,213.7,706,214.8z"/>
</g>
<g id="Layer_3" class="st0">
	<polygon class="st2" points="1251.1,353.1 1232.6,387.3 1232.6,412.3 1215,412.3 1215,387.3 1195.1,353.1 1214.9,353.1 
		1225.3,372.6 1235.2,353.1 	"/>
	<path class="st2" d="M1195.7,379.1v33.1h-8.9c-0.7-2.5-1.5-4.5-2.4-6.2c-3.7,4.7-9.1,7.1-16.3,7.1c-7.6,0-13.9-2.7-18.8-8
		s-7.4-12.5-7.4-21.6c0-8.8,2.4-16.3,7.1-22.3c4.8-6,11.8-9,21.2-9c7,0,12.7,1.8,17,5.4s7.1,8.7,8.4,15.2l-17.5,1.7
		c-0.9-6.1-3.6-9.2-8.1-9.2c-6,0-9,5.7-9,17c0,6.8,1,11.3,2.9,13.5s4.2,3.3,7,3.3c2.2,0,4.1-0.7,5.6-2s2.3-3.1,2.4-5.4h-9.8v-12.6
		H1195.7L1195.7,379.1z"/>
	<path class="st2" d="M1129.2,360.4c-5.2-5.4-11.9-8.1-20.1-8.1c-8.9,0-15.9,2.9-20.9,8.6c-5,5.8-7.5,13.1-7.5,21.9
		c0,9.2,2.6,16.6,7.9,22.1c5.2,5.5,12,8.3,20.3,8.3s15-2.8,20.2-8.5s7.8-13.2,7.8-22.6C1137,373,1134.4,365.8,1129.2,360.4z
		 M1115.5,395.7c-1.3,2.7-3.6,4-6.6,4c-5.7,0-8.6-5.5-8.6-16.5c0-11.7,3-17.6,9-17.6c5.5,0,8.3,5.1,8.3,15.4
		C1117.5,388.2,1116.8,393.1,1115.5,395.7z"/>
	<polygon class="st2" points="1077.9,397.7 1077.9,412.3 1036.5,412.3 1036.5,353.1 1054.6,353.1 1054.6,397.7 	"/>
	<path class="st2" d="M1021.1,360.4c-5.2-5.4-11.9-8.1-20.1-8.1c-8.9,0-15.8,2.9-20.9,8.6c-5,5.8-7.5,13.1-7.5,21.9
		c0,9.2,2.6,16.6,7.9,22.1c5.2,5.5,12,8.3,20.3,8.3s15-2.8,20.2-8.5c5.2-5.7,7.9-13.2,7.9-22.6
		C1028.8,373,1026.2,365.8,1021.1,360.4z M1007.3,395.7c-1.3,2.7-3.6,4-6.6,4c-5.8,0-8.6-5.5-8.6-16.5c0-11.7,3-17.6,9-17.6
		c5.5,0,8.3,5.1,8.3,15.4C1009.3,388.2,1008.7,393.1,1007.3,395.7z"/>
	<rect x="946.8" y="353.1" class="st2" width="18.2" height="59.1"/>
	<path class="st2" d="M931.7,362c-4.9-5.9-12.4-8.8-22.3-8.8h-22.9v59.1h24c8.5,0,15.3-2.8,20.6-8.3s8-12.7,8-21.5
		C939.1,374.7,936.7,367.9,931.7,362z M917.1,394.3c-2.1,2.9-4.6,4.4-7.6,4.4h-4.7v-32.2h4.7c3.5,0,6.1,1.6,8,4.7
		c1.8,3.1,2.7,6.9,2.7,11.2C920.2,387.4,919.1,391.4,917.1,394.3z"/>
	<path class="st2" d="M867.3,386.5c4.2-2,7-4.3,8.4-6.9s2.1-5.6,2.1-9c0-5.2-1.9-9.4-5.6-12.6c-3.8-3.2-9.1-4.8-15.9-4.8h-30.9v59.1
		h18.2v-22.6h5.6l8.7,22.6H878L867.3,386.5z M856.9,375.6c-1.4,1-3.2,1.4-5.5,1.4h-7.8v-11.4h8.4c4.7,0,7,1.9,7,5.7
		C858.9,373.3,858.2,374.7,856.9,375.6z"/>
	<path class="st2" d="M801.5,353.1h-19.2L764,412.3h14.7l3.5-11.6h16.1l3.3,11.6h18.5L801.5,353.1z M785.5,387.7l4.7-17.1l4.7,17.1
		H785.5z"/>
	<path class="st2" d="M746.6,389.7l16.6,1c-0.8,7.2-3.5,12.8-8,16.6c-4.6,3.9-10.2,5.8-16.8,5.8c-8,0-14.5-2.7-19.4-8
		s-7.4-12.6-7.4-22c0-9.3,2.3-16.7,7-22.4c4.7-5.7,11.2-8.5,19.5-8.5c7.8,0,13.8,2.2,18,6.5s6.6,10,7.1,17.2l-16.9,0.9
		c0-3.9-0.8-6.8-2.3-8.5c-1.5-1.8-3.3-2.6-5.3-2.6c-5.7,0-8.5,5.7-8.5,17.2c0,6.4,0.7,10.8,2.2,13.1c1.5,2.3,3.6,3.5,6.3,3.5
		C743.4,399.5,746.1,396.2,746.6,389.7z"/>
	<polygon class="st2" points="680.5,390.1 661.2,390.1 661.2,412.3 643.6,412.3 643.6,353.1 686.3,353.1 686.3,367.2 661.2,367.2 
		661.2,376.8 680.5,376.8 	"/>
	<path class="st2" d="M628.2,360.4c-5.2-5.4-11.9-8.1-20.1-8.1c-8.9,0-15.8,2.9-20.9,8.6c-5,5.8-7.5,13.1-7.5,21.9
		c0,9.2,2.6,16.6,7.9,22.1c5.3,5.5,12,8.3,20.3,8.3s15-2.8,20.2-8.5s7.8-13.2,7.8-22.6C636,373,633.4,365.8,628.2,360.4z
		 M614.4,395.7c-1.3,2.7-3.6,4-6.6,4c-5.7,0-8.6-5.5-8.6-16.5c0-11.7,3-17.6,9-17.6c5.5,0,8.3,5.1,8.3,15.4
		C616.5,388.2,615.8,393.1,614.4,395.7z"/>
	<polygon class="st2" points="1089.1,261.8 1070.6,295.9 1070.6,320.9 1053,320.9 1053,295.9 1033.1,261.8 1052.9,261.8 
		1063.3,281.2 1073.2,261.8 	"/>
	<polygon class="st2" points="1019.4,276 1019.4,320.9 1002.3,320.9 1002.3,276 990,276 990,261.8 1031.7,261.8 1031.7,276 	"/>
	<polygon class="st2" points="988,306.8 988,320.9 943.5,320.9 943.5,261.8 988,261.8 988,275.5 961.4,275.5 961.4,284 982.9,284 
		982.9,297.2 961.4,297.2 961.4,306.8 	"/>
	<rect x="915.1" y="261.8" class="st2" width="18.2" height="59.1"/>
	<path class="st2" d="M891.8,298.4l16.6,1c-0.8,7.2-3.5,12.8-8,16.6c-4.6,3.9-10.2,5.8-16.8,5.8c-8,0-14.5-2.7-19.4-8
		s-7.4-12.6-7.4-22c0-9.3,2.3-16.7,7-22.4c4.7-5.7,11.2-8.5,19.5-8.5c7.8,0,13.8,2.2,18,6.5s6.6,10,7.1,17.2l-16.9,0.9
		c0-3.9-0.8-6.8-2.3-8.5c-1.5-1.8-3.3-2.6-5.3-2.6c-5.7,0-8.5,5.7-8.5,17.2c0,6.4,0.7,10.8,2.2,13.1c1.5,2.3,3.6,3.5,6.3,3.5
		C888.6,308.2,891.3,304.9,891.8,298.4z"/>
	<path class="st2" d="M844,269.1c-5.2-5.4-11.9-8.1-20.1-8.1c-8.9,0-15.9,2.9-20.9,8.6c-5,5.8-7.5,13.1-7.5,21.9
		c0,9.2,2.6,16.6,7.9,22.1c5.2,5.5,12,8.3,20.3,8.3s15-2.8,20.2-8.5s7.8-13.2,7.8-22.6C851.8,281.7,849.2,274.5,844,269.1z
		 M830.3,304.4c-1.3,2.7-3.6,4-6.6,4c-5.7,0-8.6-5.5-8.6-16.5c0-11.7,3-17.6,9-17.6c5.5,0,8.3,5.1,8.3,15.4
		C832.3,296.8,831.6,301.7,830.3,304.4z"/>
	<path class="st2" d="M738.2,303.7l16.8-3c1.4,4.8,5,7.2,10.9,7.2c4.6,0,6.8-1.2,6.8-3.6c0-1.3-0.5-2.3-1.6-3
		c-1-0.7-2.9-1.3-5.6-1.9c-10.3-2-17-4.6-19.9-7.8c-2.9-3.2-4.4-7-4.4-11.3c0-5.6,2.1-10.2,6.3-13.9c4.2-3.7,10.3-5.5,18.2-5.5
		c12,0,20,4.8,23.8,14.5l-15,4.6c-1.6-4-4.7-5.9-9.5-5.9c-4,0-5.9,1.2-5.9,3.7c0,1.1,0.4,2,1.3,2.6c0.9,0.6,2.6,1.2,5.2,1.7
		c7.1,1.5,12.1,2.8,15.1,3.9s5.4,3.1,7.4,5.9s3,6.1,3,9.9c0,6-2.4,10.8-7.3,14.6c-4.8,3.7-11.2,5.6-19.1,5.6
		C750.5,321.8,741.6,315.8,738.2,303.7z"/>
	<path class="st2" d="M1150.9,229.6h-14.8l-16.3-26.1c-2.1-3.3-4.2-7.4-6.2-12.3c1,3.8,1.4,7,1.4,9.7v28.6h-14.7v-59.1h17.1
		l13.8,21.7c2.7,4.3,4.8,8.1,6.2,11.4c-0.9-5.1-1.4-10.2-1.4-15.5v-17.5h14.8L1150.9,229.6L1150.9,229.6z"/>
	<path class="st2" d="M1076.5,170.5h-19.2l-18.3,59.1h14.7l3.5-11.6h16.1l3.3,11.6h18.5L1076.5,170.5z M1060.5,205l4.7-17.1
		l4.7,17.1H1060.5z"/>
	<rect x="1015.5" y="170.5" class="st2" width="18.2" height="59.1"/>
	<path class="st2" d="M996.2,203.8c4.2-2,7-4.3,8.4-6.9c1.4-2.6,2.1-5.6,2.1-9c0-5.2-1.9-9.4-5.7-12.6c-3.8-3.2-9.1-4.8-15.9-4.8
		h-30.9v59.1h18.2V207h5.6l8.7,22.6h20.1L996.2,203.8z M985.7,193c-1.4,1-3.2,1.4-5.5,1.4h-7.7v-11.3h8.4c4.7,0,7,1.9,7,5.7
		C987.8,190.6,987.1,192,985.7,193z"/>
	<path class="st2" d="M930.4,170.5h-19.2l-18.3,59.1h14.7l3.5-11.6h16.1l3.3,11.6H949L930.4,170.5z M914.4,205l4.7-17.1l4.7,17.1
		H914.4z"/>
	<path class="st2" d="M888.3,196.4v33.1h-8.9c-0.7-2.5-1.5-4.5-2.4-6.2c-3.7,4.7-9.1,7.1-16.3,7.1c-7.6,0-13.9-2.7-18.8-8
		c-4.9-5.3-7.4-12.5-7.4-21.6c0-8.8,2.4-16.3,7.1-22.3c4.8-6,11.8-9,21.2-9c7,0,12.7,1.8,17,5.4c4.3,3.6,7.1,8.7,8.4,15.2l-17.5,1.7
		c-0.9-6.1-3.6-9.2-8.1-9.2c-6,0-9,5.7-9,17c0,6.8,1,11.3,2.9,13.5s4.2,3.3,7,3.3c2.2,0,4.1-0.7,5.6-2s2.3-3.1,2.4-5.4h-9.8v-12.6
		H888.3L888.3,196.4z"/>
	<polygon class="st2" points="831.6,215 831.6,229.6 790.1,229.6 790.1,170.5 808.3,170.5 808.3,215 	"/>
	<path class="st2" d="M780.5,170.5v39.1c0,7.4-2.2,12.7-6.6,16c-4.4,3.2-10.2,4.9-17.2,4.9c-7.5,0-13.4-1.6-18-4.7
		s-6.8-8.2-6.8-15.2v-40.1h18.4v37.9c0,2.8,0.6,4.9,1.8,6.2s3.1,2,5.7,2c2.2,0,4-0.5,5.4-1.4s2.3-2,2.5-3.2c0.3-1.2,0.4-3.5,0.4-6.9
		v-34.6H780.5L780.5,170.5z"/>
	<path class="st2" d="M713.7,198.8c3.3-0.9,5.7-2.5,7.4-4.9s2.5-5,2.5-8c0-4-1.4-7.6-4.3-10.8c-2.9-3.1-7.4-4.7-13.6-4.7h-30v59.1
		h28.2c8.8,0,14.6-1.7,17.3-5.2s4-7.4,4-11.8C725.1,205.3,721.3,200.7,713.7,198.8z M692.2,183.1h8.2c4.1,0,6.1,1.6,6.1,4.9
		c0,1.2-0.4,2.4-1.3,3.4c-0.9,1.1-2.4,1.6-4.5,1.6h-8.5V183.1z M706,214.8c-1,1.1-2.7,1.6-4.9,1.6h-8.9v-10.8h8.3
		c2.7,0,4.5,0.6,5.5,1.7c1,1.1,1.5,2.4,1.5,3.8C707.6,212.5,707,213.7,706,214.8z"/>
	<path class="st1" d="M447.2,120c-11.9-5.2-42.7-13.8-57.6-4.4c-12.3,7.7-15.3,24.2-3,35.2c9.1,8,26,12,40.2,16
		c26.9,7.5,53.2,37.8,41.4,76.6c-3.3,11.1-9,22.3-16,30.7c-7.1,8.4-71.8,74.6-112.3,111.4c0,0-27-28.1-27-28.7
		c27-27.6,54.3-48.9,71.2-85.9c30.7-67-12.1-158.5-108.9-158.5c-91.5,0-130.9,92.9-113.9,141.1c12.9,36.6,32.4,57.8,55.7,81.1
		c7.1,7.1,14.2,14.2,21.3,21.3l-27.9,29.5c-28.9-29.2-57.9-57.3-86.8-86.5c-16-16-34.6-31.3-41-56.9c-9.6-38.1,17.9-67.9,44.3-76.2
		c14.6-4.6,32.1-3.1,40.1-11.5c21-21.9,1.5-44.4-28.5-42.2c-8.1,0-18,1.6-25.5,3.7c-37.9,11.1-66.1,43.5-76.2,70.5
		C4,273.8,73.5,321,112.5,360.1c20.5,20.5,36.8,38.6,57.3,59.1c6.9,6.9,23.2,29.2,41,29.2c14.9,0,26.7-15.2,39.5-29.5
		c11.4-12.6,25-27.3,25-27.3s13.7,14.4,25.3,26.8c13.6,14.4,26.3,30.7,39.4,30.1c14.4-0.7,27.9-17.2,40.1-29.2
		c31.1-30.8,61.9-62.8,75.4-76.4c31.3-31.3,62.2-58.9,66.4-108.2C526.6,177.9,493,140.1,447.2,120 M275.1,320.8
		c-18-17.3-64.8-53.4-64.8-91.7c0-49.3,43.5-66.3,64.8-66.3c47,0,64.7,33.8,64.7,66.8C339.8,268.4,291.5,304.7,275.1,320.8z"/>
</g>
<g id="Layer_2">
	<g>
		<g>
			<path d="M704.7,219.3H723l-8-36.9h-2.3L704.7,219.3z M693.2,219.3l11.7-48.1h20.6l11.9,48.1h5.5V243h-8.6l-1.4-12.5h-35.2
				l-1.3,12.5h-8.6v-23.7H693.2z"/>
			<path d="M760.4,197.7h8.7c3.3,0,5.6-0.8,7-2.4c1.3-1.6,2-3.4,2-5.5c0-2.4-0.7-4.3-2.2-5.7s-3.8-2.1-6.8-2.1h-8.7V197.7
				L760.4,197.7z M760.9,208.5v22h-13.6v-59.3h22.5c5,0,8.8,0.6,11.5,1.7c2.7,1.1,5,3.1,7.1,6s3.1,6.4,3.1,10.6
				c0,2.9-0.5,5.8-1.7,8.6c-1.1,2.8-2.7,5-4.7,6.6s-4,2.7-5.9,3.2s-4.9,0.8-9,0.8L760.9,208.5L760.9,208.5z"/>
			<path d="M812.5,212.6l-20.8-41.4H806l12.5,26.3l10.2-26.3h11.9l-17.4,43.9c-2.2,5.5-4.6,9.5-7.2,11.9c-2.7,2.4-6.4,3.6-11.3,3.6
				H799v-11.3h4.6c2.2,0,3.9-0.4,5.3-1.1C810.2,217.3,811.5,215.5,812.5,212.6"/>
			<polygon points="894.9,196.8 915.9,230.5 901.9,230.5 885.2,204.3 882.2,205.1 882.2,230.5 869.8,230.5 869.8,205.1 866.8,204.3 
				850.1,230.5 837.6,230.5 857.3,200.6 839.2,171.2 852.9,171.2 867.7,195.6 869.8,196.2 869.8,171.2 882.2,171.2 882.2,196.2 
				884.4,195.6 899.1,171.2 911.4,171.2 			"/>
			<polygon points="959.3,182.5 932.1,182.5 932.1,194.6 953.5,194.6 953.5,205.8 932.1,205.8 932.1,218.7 959.3,218.7 959.3,230.5 
				918.5,230.5 918.5,171.2 959.3,171.2 			"/>
			<path d="M1013.4,193.2l-14,0.9c-0.2-8.4-3.3-12.5-9.4-12.5c-7,0-10.4,6.5-10.4,19.3c0,7.4,0.9,12.5,2.8,15.2c1.9,2.7,4.5,4,8,4
				c5.5,0,8.9-3.7,10.1-11.2l13,0.8c-0.8,7.1-3.4,12.5-7.6,16.2c-4.3,3.7-9.4,5.6-15.6,5.6c-7.6,0-13.7-2.7-18.4-8.1
				c-4.7-5.4-7.1-12.9-7.1-22.5c0-9,2.3-16.3,6.9-22c4.6-5.7,10.8-8.6,18.7-8.6C1003.9,170.3,1011.6,177.9,1013.4,193.2"/>
			<polygon points="1058.1,171.2 1058.1,182.9 1043.9,182.9 1043.9,230.5 1030.4,230.5 1030.4,182.9 1016.2,182.9 1016.2,171.2 			
				"/>
			<path d="M1077.2,205.2v14.3h10.3c3.5,0,6-0.6,7.4-1.9c1.5-1.3,2.2-3,2.2-5.3c0-1.9-0.7-3.6-2.1-5s-3.7-2.1-6.9-2.1
				C1088,205.2,1077.2,205.2,1077.2,205.2z M1077.2,181.6v13h10.1c3.7,0,6-0.7,7-2.3c0.9-1.5,1.4-3,1.4-4.4c0-1.5-0.4-2.8-1.2-3.9
				c-0.8-1.1-1.7-1.8-2.6-2.1s-2.8-0.4-5.6-0.4C1086.3,181.6,1077.2,181.6,1077.2,181.6z M1063.8,171.2h26.6c4.8,0,8.4,0.6,10.8,1.8
				s4.4,2.9,5.9,5.2c1.5,2.2,2.3,5,2.3,8.2c0,6.6-3.4,10.9-10.3,13.2c4,0.9,6.9,2.8,8.9,5.5c2,2.8,3,5.8,3,9c0,4.4-1.6,8.3-4.9,11.5
				c-3.2,3.2-8.5,4.9-15.8,4.9h-26.6L1063.8,171.2L1063.8,171.2z"/>
			<path d="M1141.4,181.6c-7,0-10.5,6.4-10.5,19.2s3.5,19.3,10.5,19.3c6.8,0,10.2-6.4,10.2-19.2
				C1151.6,188,1148.2,181.6,1141.4,181.6 M1141,231.4c-7.7,0-13.6-3-17.8-9c-4.2-6-6.3-13.2-6.3-21.8c0-8.7,2.1-15.9,6.4-21.7
				s10.4-8.7,18.2-8.7c8,0,14,3.1,18,9.3c4.1,6.2,6.1,13.3,6.1,21.2c0,8.6-2.1,15.9-6.3,21.8C1155.2,228.4,1149.1,231.4,1141,231.4z
				"/>
		</g>
		<g>
			<g>
				<polygon points="601.6,262.5 601.6,321.8 588.4,321.8 588.4,297.3 570.6,297.3 570.6,321.8 557.4,321.8 557.4,262.5 
					570.6,262.5 570.6,285.6 588.4,285.6 588.4,262.5 				"/>
				<path d="M625.8,298.6h12.1l-6.1-20.8L625.8,298.6z M641,262.5l17.9,59.3h-14.4l-3.5-12.2h-18.5l-3.6,12.2h-11.7l18.3-59.3H641z"
					/>
			</g>
			<g>
				<polygon points="697.4,262.5 697.4,290.4 715.3,262.5 728.1,262.5 714.4,283.7 731.5,321.8 716.8,321.8 705.4,296.1 
					697.4,308.2 697.4,321.8 684.3,321.8 684.3,262.5 				"/>
				<path d="M751.1,298.6h12.1l-6.1-20.8L751.1,298.6z M766.3,262.5l17.9,59.3h-14.4l-3.5-12.2h-18.5l-3.6,12.2h-11.7l18.3-59.3
					H766.3z"/>
				<path d="M803.4,289h8.7c3.3,0,5.6-0.8,7-2.4s2-3.4,2-5.5c0-2.4-0.7-4.3-2.2-5.7c-1.5-1.4-3.8-2.1-6.8-2.1h-8.7V289L803.4,289z
					 M803.9,299.8v22h-13.6v-59.3h22.5c5,0,8.8,0.6,11.5,1.7s5,3.1,7.1,6s3.2,6.4,3.2,10.6c0,2.9-0.6,5.8-1.7,8.6
					c-1.1,2.8-2.7,5-4.7,6.6s-4,2.7-5.9,3.2s-4.9,0.8-9,0.8L803.9,299.8L803.9,299.8z"/>
				<path d="M849,310.6h18.3l-8-36.9H857L849,310.6z M837.4,310.6l11.7-48.1h20.6l11.9,48.1h5.5v23.7h-8.6l-1.4-12.5h-35.2
					l-1.3,12.5H832v-23.7H837.4L837.4,310.6z"/>
				<path d="M904.7,315.9v5.9h-13.1v-59.3h13.1v25.3c0,4.3-0.1,8.7-0.4,13.2c2.2-5.1,4.3-9.1,6.4-12.3l13.4-20v-6.2h13.1v59.3h-13.1
					v-26.9c0-4.5,0.1-8.2,0.4-11.1c-1.8,4.4-4,8.5-6.4,12.2L904.7,315.9z"/>
				<path d="M970.6,272.9c-7,0-10.5,6.4-10.5,19.2c0,12.8,3.5,19.3,10.5,19.3c6.8,0,10.2-6.4,10.2-19.2
					C980.8,279.3,977.4,272.9,970.6,272.9 M970.2,322.7c-7.7,0-13.6-3-17.9-9c-4.2-6-6.3-13.2-6.3-21.8c0-8.7,2.1-15.9,6.4-21.7
					c4.3-5.8,10.3-8.7,18.2-8.7c8,0,14,3.1,18,9.3c4.1,6.2,6.1,13.2,6.1,21.2c0,8.6-2.1,15.9-6.3,21.8
					C984.3,319.7,978.2,322.7,970.2,322.7z"/>
				<polygon points="1007.6,321.8 995.9,321.8 1012,262.5 1029.9,262.5 1046.2,321.8 1031.7,321.8 1019.7,274.8 				"/>
				<path d="M1072.9,272.9c-7,0-10.5,6.4-10.5,19.2c0,12.8,3.5,19.3,10.5,19.3c6.8,0,10.2-6.4,10.2-19.2
					C1083.1,279.3,1079.7,272.9,1072.9,272.9 M1072.5,322.7c-7.7,0-13.6-3-17.9-9c-4.2-6-6.3-13.2-6.3-21.8c0-8.7,2.1-15.9,6.4-21.7
					c4.3-5.8,10.4-8.7,18.2-8.7c8,0,14,3.1,18,9.3c4.1,6.2,6.1,13.2,6.1,21.2c0,8.6-2.1,15.9-6.3,21.8S1080.5,322.7,1072.5,322.7z"
					/>
				<path d="M1101.1,303.8l11.9-1.7c1,6.2,4.6,9.3,10.8,9.3c6.5,0,9.7-2.6,9.7-7.9c0-5-2.7-7.5-8.2-7.5h-4.6v-9.2h4.1
					c2.3,0,4.1-0.6,5.4-2s1.9-3,1.9-5.2c0-2.1-0.8-3.8-2.4-5s-3.7-1.8-6.3-1.8c-3,0-5.3,0.6-6.9,1.8c-1.6,1.2-2.7,3.3-3.2,6.3
					l-11-1.9c1.6-11.7,8.8-17.5,21.5-17.5c6.8,0,12.2,1.5,16,4.4c3.9,2.9,5.8,6.7,5.8,11.5c0,6.2-3.3,10.4-9.8,12.7
					c7.7,2.2,11.5,6.8,11.5,13.7c0,5.5-2.1,10-6.2,13.5s-9.6,5.3-16.6,5.3c-7.8,0-13.6-1.8-17.5-5.3
					C1103.5,313.9,1101.4,309.4,1101.1,303.8"/>
				<path d="M1169.1,315.9v5.9H1156v-59.3h13.1v25.3c0,4.3-0.1,8.7-0.4,13.2c2.2-5.1,4.3-9.1,6.4-12.3l13.4-20v-6.2h13.1v59.3h-13.1
					v-26.9c0-4.5,0.1-8.2,0.4-11.1c-1.8,4.4-4,8.5-6.4,12.2L1169.1,315.9z"/>
				<polygon points="1249.3,262.5 1249.3,274.2 1235.2,274.2 1235.2,321.8 1221.7,321.8 1221.7,274.2 1207.4,274.2 1207.4,262.5 
									"/>
				<polygon points="1295.9,273.8 1268.6,273.8 1268.6,286 1290,286 1290,297.1 1268.6,297.1 1268.6,310.1 1295.9,310.1 
					1295.9,321.8 1255,321.8 1255,262.5 1295.9,262.5 				"/>
			</g>
		</g>
		<g>
			<path d="M700.1,387.3v14.3h10.3c3.5,0,6-0.6,7.5-1.9s2.2-3,2.2-5.3c0-1.9-0.7-3.6-2.1-5s-3.7-2.1-6.9-2.1H700.1L700.1,387.3z
				 M700.1,363.7v13h10.1c3.7,0,6-0.7,7-2.3c1-1.5,1.4-3,1.4-4.4c0-1.5-0.4-2.8-1.2-3.9s-1.7-1.8-2.6-2c-0.9-0.3-2.8-0.4-5.6-0.4
				L700.1,363.7L700.1,363.7z M686.7,353.3h26.6c4.8,0,8.4,0.6,10.8,1.8c2.4,1.2,4.4,2.9,5.9,5.2c1.6,2.2,2.3,5,2.3,8.2
				c0,6.6-3.4,10.9-10.3,13.2c4,0.9,6.9,2.8,8.9,5.5c2,2.8,3,5.8,3,9c0,4.4-1.6,8.3-4.8,11.5s-8.5,4.9-15.8,4.9h-26.6L686.7,353.3
				L686.7,353.3z"/>
			<path d="M777,401.4h10.3c2.4,0,4.3-0.6,5.6-2c1.3-1.3,2-3,2-5.2c0-4.6-2.9-6.9-8.6-6.9H777V401.4L777,401.4z M763.9,412.6v-59.3
				h38.2V364H777v12.9h9.6c5,0,8.9,0.5,11.9,1.5c2.9,1,5.3,2.9,7.1,5.7c1.8,2.8,2.8,6.3,2.8,10.4c0,5.7-1.7,10.2-5,13.3
				c-3.4,3.2-8.1,4.8-14.1,4.8H763.9L763.9,412.6z"/>
			<path d="M835.6,401.4h9.8c5.4,0,8.1-2.6,8.1-7.8s-2.6-7.8-7.9-7.8h-10L835.6,401.4L835.6,401.4z M822.5,365h-13.4v-11.7h26.5V375
				h9.8c5.6,0,9.8,0.6,12.6,2c2.7,1.3,4.9,3.4,6.6,6.3c1.7,2.9,2.5,6.3,2.5,10.2c0,5.4-1.7,9.9-5,13.6c-3.3,3.6-8.4,5.5-15.4,5.5
				h-24.3V365H822.5z"/>
			<polygon points="879,412.6 867.3,412.6 883.4,353.3 901.3,353.3 917.6,412.6 903.1,412.6 891.1,365.6 			"/>
			<polygon points="922.5,412.6 922.5,353.3 955.1,353.3 955.1,365 935.6,365 935.6,412.6 			"/>
			<path d="M973.6,389.4h12.1l-6.1-20.8L973.6,389.4z M988.8,353.3l17.9,59.3h-14.4l-3.5-12.2h-18.5l-3.6,12.2H955l18.3-59.3H988.8z
				"/>
			<path d="M1025.9,379.8h8.7c3.3,0,5.6-0.8,7-2.4c1.3-1.6,2-3.4,2-5.5c0-2.4-0.7-4.3-2.2-5.7c-1.5-1.4-3.8-2.1-6.8-2.1h-8.7V379.8
				L1025.9,379.8z M1026.4,390.6v22h-13.6v-59.3h22.5c5,0,8.8,0.6,11.5,1.7s5,3.1,7.1,6s3.2,6.4,3.2,10.6c0,2.9-0.5,5.8-1.7,8.6
				c-1.1,2.8-2.7,5-4.7,6.6s-4,2.7-5.9,3.2s-4.9,0.8-9,0.8L1026.4,390.6L1026.4,390.6z"/>
			<path d="M1077.6,406.7v5.9h-13.1v-59.3h13.1v25.3c0,4.3-0.1,8.7-0.4,13.2c2.2-5.1,4.3-9.1,6.4-12.2l13.4-20v-6.2h13.1v59.3H1097
				v-26.9c0-4.5,0.1-8.2,0.4-11.1c-1.8,4.4-4,8.5-6.4,12.2L1077.6,406.7z"/>
			<path d="M1153.1,363.8h-7.9c-3.1,0-5.3,0.2-6.4,0.5s-2.2,1.2-3.1,2.5s-1.3,2.8-1.3,4.4c0,1.7,0.5,3.3,1.5,4.6
				c1,1.4,2.1,2.2,3.3,2.6c1.2,0.3,3.1,0.5,5.7,0.5h8.2L1153.1,363.8L1153.1,363.8z M1153.1,389.1h-11.3l-9.4,23.5h-14.2l12.2-26.2
				c-6.6-3.1-9.9-8.2-9.9-15.3c0-4.4,1.5-8.5,4.4-12.2s8.4-5.6,16.5-5.6h25.1v59.3H1153L1153.1,389.1L1153.1,389.1z"/>
		</g>
	</g>
	<path class="st3" d="M447.2,120c-11.9-5.2-42.7-13.8-57.6-4.4c-12.3,7.7-15.3,24.2-3,35.2c9.1,8,26,12,40.2,16
		c26.9,7.5,53.2,37.8,41.4,76.6c-3.3,11.1-9,22.3-16,30.7c-7.1,8.4-71.8,74.6-112.3,111.4c0,0-27-28.1-27-28.7
		c27-27.6,54.3-48.9,71.2-85.9c30.7-67-12.1-158.5-108.9-158.5c-91.5,0-130.9,92.9-113.9,141.1c12.9,36.6,32.4,57.8,55.7,81.1
		c7.1,7.1,14.2,14.2,21.3,21.3l-27.9,29.5c-28.9-29.2-57.9-57.3-86.8-86.5c-16-16-34.6-31.3-41-56.9c-9.6-38.1,17.9-67.9,44.3-76.2
		c14.6-4.6,32.1-3.1,40.1-11.5c21-21.9,1.5-44.4-28.5-42.2c-8.1,0-18,1.6-25.5,3.7c-37.9,11.1-66.1,43.5-76.2,70.5
		C4,273.8,73.5,321,112.5,360.1c20.5,20.5,36.8,38.6,57.3,59.1c6.9,6.9,23.2,29.2,41,29.2c14.9,0,26.7-15.2,39.5-29.5
		c11.4-12.6,25-27.3,25-27.3s13.7,14.4,25.3,26.8c13.6,14.4,26.3,30.7,39.4,30.1c14.4-0.7,27.9-17.2,40.1-29.2
		c31.1-30.8,61.9-62.8,75.4-76.4c31.3-31.3,62.2-58.9,66.4-108.2C526.6,177.9,493,140.1,447.2,120 M275.1,320.8
		c-18-17.3-64.8-53.4-64.8-91.7c0-49.3,43.5-66.3,64.8-66.3c47,0,64.7,33.8,64.7,66.8C339.8,268.4,291.5,304.7,275.1,320.8z"/>
</g>
</svg>
