<?xml version="1.0" encoding="utf-8"?>
<!-- Generator: Adobe Illustrator 24.3.0, SVG Export Plug-In . SVG Version: 6.00 Build 0)  -->
<!DOCTYPE svg PUBLIC "-//W3C//DTD SVG 1.1//EN" "http://www.w3.org/Graphics/SVG/1.1/DTD/svg11.dtd" [
	<!ENTITY ns_extend "http://ns.adobe.com/Extensibility/1.0/">
	<!ENTITY ns_ai "http://ns.adobe.com/AdobeIllustrator/10.0/">
	<!ENTITY ns_graphs "http://ns.adobe.com/Graphs/1.0/">
	<!ENTITY ns_vars "http://ns.adobe.com/Variables/1.0/">
	<!ENTITY ns_imrep "http://ns.adobe.com/ImageReplacement/1.0/">
	<!ENTITY ns_sfw "http://ns.adobe.com/SaveForWeb/1.0/">
	<!ENTITY ns_custom "http://ns.adobe.com/GenericCustomNamespace/1.0/">
	<!ENTITY ns_adobe_xpath "http://ns.adobe.com/XPath/1.0/">
]>
<svg version="1.1" id="Layer_1" xmlns:x="&ns_extend;" xmlns:i="&ns_ai;" xmlns:graph="&ns_graphs;"
	 xmlns="http://www.w3.org/2000/svg" xmlns:xlink="http://www.w3.org/1999/xlink" x="0px" y="0px" viewBox="0 0 20 20"
	 style="enable-background:new 0 0 20 20;" xml:space="preserve">
<style type="text/css">
	.st0{fill:#687A9B;}
</style>
<metadata>
	<sfw  xmlns="&ns_sfw;">
		<slices></slices>
		<sliceSourceBounds  bottomLeftOrigin="true" height="57.7" width="59.3" x="0.1" y="-58.4"></sliceSourceBounds>
	</sfw>
</metadata>
<g>
	<path id="Path_3830" class="st0" d="M15.3,18.3l0.1,0.2c-0.3,0.1-0.6,0.1-0.9,0c-0.2,0-0.4,0-0.6-0.2c-0.1-0.1-0.1-0.2-0.2-0.2
		c-0.1,0-0.2-0.1-0.3-0.2c0-0.1-0.1-0.2-0.2-0.2c-0.1,0-0.1,0-0.1-0.1c0-0.3-0.2-0.2-0.3-0.1c-0.2,0.1-0.4,0.2-0.6-0.1
		c0-0.1-0.2-0.1-0.3-0.1c-0.1,0-0.3,0-0.3-0.1c-0.1-0.2-0.3-0.2-0.5-0.1c-0.2,0.1-0.4,0.1-0.5,0.2c-0.1,0.1-0.3,0.1-0.4,0.1
		c-0.5,0.1-0.8,0.4-0.9,0.9c0,0,0,0.1,0,0.1c0,0.2,0,0.3,0,0.5c-0.1,0.1-0.3,0-0.5,0c-0.1,0-0.1,0-0.2,0.1c-0.1,0.1-0.2,0-0.3-0.1
		c0,0,0,0,0,0c-0.2-0.2-0.3-0.3-0.6-0.1c0-0.1-0.1-0.3-0.3-0.3c-0.2-0.1,0-0.3-0.2-0.4c-0.1-0.1-0.3-0.1-0.4-0.1c0,0,0,0-0.1,0
		c-0.3-0.1-0.5-0.3-0.7-0.4c-0.2-0.2-0.5-0.1-0.7,0.1c0,0,0,0,0,0c-0.1,0.1-0.2,0.1-0.3,0c-0.1-0.1-0.3-0.2-0.5-0.2
		c-0.1,0-0.2-0.1-0.3-0.2c-0.1-0.2-0.3-0.2-0.5-0.2c-0.1,0-0.2,0-0.2-0.1c0,0,0,0,0,0c0-0.2-0.2-0.3-0.4-0.3c-0.1,0-0.3-0.1-0.3-0.2
		c0,0,0-0.1,0-0.1c-0.2-0.1-0.5-0.2-0.3-0.5c0-0.1-0.2-0.1-0.3-0.1c-0.1,0-0.2,0-0.2-0.1c0-0.1,0.1-0.1,0.2-0.1
		c0.3-0.1,0.5-0.3,0.6-0.6c0.5-1,0.8-2.1,1.3-3.1c0-0.1,0.1-0.2,0.1-0.2c0.2,0.1,0.3,0.3,0.3,0.6c0,0.3,0.1,0.6,0.2,0.9
		c0,0.1,0.1,0.2,0.2,0.1c0.1,0,0.1-0.1,0-0.2c-0.1-0.4-0.1-0.8-0.2-1.1c0-0.3-0.3-0.5-0.5-0.8c-0.1-0.1-0.2-0.1-0.1-0.2
		c0-0.1,0.1,0,0.2,0c0.1,0,0.1,0,0.2-0.1c0,0,0-0.1,0-0.1C4.5,9.5,4.5,9.5,3.9,9C3.7,8.9,3.6,8.8,3.6,8.6c0-0.2-0.1-0.3-0.2-0.4
		c0-0.1-0.1-0.2,0-0.2c0.3-0.1,0.2-0.3,0.2-0.4c0-0.1-0.1-0.1-0.1-0.2C3.6,7.1,3.5,7,3.2,7c-0.1,0-0.3-0.1,0-0.2
		c0.1-0.1,0.1-0.2,0.1-0.3c0-0.1-0.1-0.1-0.2-0.1c-0.2,0-0.3,0-0.3-0.2c0,0,0,0,0,0C2.3,6.1,2.2,5.8,2,5.7C1.7,5.5,1.4,5.4,1.2,5.2
		C1,5,0.9,4.9,0.8,5.1C0.7,5.2,0.6,5.1,0.6,5c0-0.2-0.1-0.4-0.3-0.5c0.1,0,0.2,0,0.3,0c0.1,0,0.2,0,0.2-0.1c0-0.1,0-0.2-0.1-0.2
		C0.6,4.2,0.6,4.1,0.6,4c0-0.1,0-0.1-0.1-0.1C0.3,3.7,0.3,3.5,0.6,3.5C1,3.4,1.4,3.4,1.8,3.6c0.2,0.1,0.4,0.1,0.5,0
		c0.3-0.1,0.6,0,0.8,0.2C3.2,4,3.3,4.2,3.4,4.4c0,0.1,0.1,0.2,0.2,0.1c0.2-0.2,0.4-0.2,0.6,0C4.5,4.6,4.7,4.7,5,4.7
		c0.4,0,0.4,0.1,0.4-0.3c0-0.3,0-0.5,0-0.7c0.1-0.2,0-0.5-0.1-0.7c-0.1-0.1,0-0.3,0-0.5c0-0.1,0.1-0.1,0.1,0c0,0,0.1,0.1,0.1,0.1
		C5.9,2.8,6,2.8,6,3.1c0,0.2,0.2,0.3,0.3,0.3c0,0,0,0,0,0c0.4,0.1,0.7,0.2,1,0.4C7.7,3.9,8,3.9,8.3,3.8c0.1,0,0.1-0.1,0-0.2
		c-0.1-0.2,0-0.4,0.2-0.5c0.3-0.1,0.6-0.1,1,0c0.4,0,0.8-0.1,1.1-0.4c0.2-0.1,0.1-0.4,0.2-0.7c0-0.2,0.1-0.3,0.1-0.5
		c0.1-0.2,0.3-0.4,0.5-0.3c0.2,0,0.5,0,0.7,0c0.1,0,0.1,0.1,0.2,0.2c0.1,0.3,0.3,0.5,0.5,0.6C13,1.9,13,2,13,2.2
		c0,0.2-0.1,0.5,0.3,0.4c0.1,0,0.2,0.1,0.2,0.2c-0.1,0.2,0,0.3,0.3,0.2c0.4,0,0.5,0.1,0.4,0.4c0,0.1-0.2,0.3,0.1,0.4
		c0.5,0.2,0.5,0.2,0.7,0c0,0,0-0.1,0.2-0.1c0,0.1,0,0.2,0,0.3c-0.1,0.3,0.1,0.5,0.3,0.7c0.3,0.3,0.7,0.5,1.1,0.5
		c0.1,0,0.1,0,0.2,0.1c0.1,0.1,0.3,0.2,0.5,0.2c0,0,0.1,0,0.1,0.1c0,0.1,0.1,0.2,0.1,0.3c0.1,0.2,0.1,0.4,0.5,0.3
		c0.1,0,0.1,0,0.2,0.1c0.1,0.1,0.2,0.1,0.3,0.1c0.2,0,0.4,0.1,0.6,0.2c0.1,0.1,0.3,0.1,0.4,0.1c0.1,0,0.2,0,0.2,0.1S19.6,7,19.5,7
		c-0.6,0.5-1,1.1-1.1,1.9c-0.1,0.2-0.1,0.4-0.1,0.6c0,0.1-0.2,0.3-0.4,0.2c-0.1,0-0.1,0-0.1-0.1c-0.2-0.1-0.3-0.2-0.5,0.1
		C17.3,10,17,10.1,17,10.4c0,0.1-0.2,0.1-0.3,0.1c-0.2,0-0.3,0.1-0.3,0.3c0,0.3-0.3,0.3-0.5,0.4c-0.2,0.2-0.3,0.5-0.1,0.7
		c0.1,0.1,0.1,0,0.2,0c0.2,0,0.4,0,0.6-0.1c0.1,0,0.2,0,0.3,0.1c0.1,0.1,0,0.1-0.1,0.2c-0.1,0.1-0.1,0.3,0.1,0.4
		c0.1,0.1,0.2,0.1,0.3,0.3c-0.2,0-0.4,0-0.4,0.2c-0.1,0.2,0,0.4,0.2,0.4c0.1,0.1,0.1,0.1,0.1,0.2c0,0.1,0,0.2,0.1,0.3
		c0.2,0.1,0.1,0.2,0,0.3c-0.2,0.1-0.4,0.1-0.6,0.1c-0.2,0-0.3,0-0.2,0.2c0.1,0.2,0.1,0.6,0.5,0.7c0.1,0,0,0.2-0.1,0.3
		c-0.2,0.2-0.3,0.6,0,0.8c0,0.1,0.1,0.1,0.2,0.1c0.2,0.1,0.5,0.4,0.8,0.3c0,0,0.1,0,0.1,0.1c0,0,0,0.1,0,0.1
		c-0.2,0.1-0.3,0.4-0.4,0.5c-0.3,0.1-0.6,0.3-0.9,0.5c0,0-0.1,0-0.1,0.1S15.9,18,15.9,18c0,0,0,0-0.1,0c-0.1-0.1-0.2-0.3-0.4-0.2
		c-0.1,0-0.1,0.1-0.2,0.2C15.3,18,15.2,18.3,15.3,18.3C15.4,18.3,15.4,18.3,15.3,18.3z"/>
</g>
</svg>
