<?xml version="1.0" encoding="utf-8"?>
<!-- Generator: Adobe Illustrator 24.3.0, SVG Export Plug-In . SVG Version: 6.00 Build 0)  -->
<!DOCTYPE svg PUBLIC "-//W3C//DTD SVG 1.1//EN" "http://www.w3.org/Graphics/SVG/1.1/DTD/svg11.dtd" [
	<!ENTITY ns_extend "http://ns.adobe.com/Extensibility/1.0/">
	<!ENTITY ns_ai "http://ns.adobe.com/AdobeIllustrator/10.0/">
	<!ENTITY ns_graphs "http://ns.adobe.com/Graphs/1.0/">
	<!ENTITY ns_vars "http://ns.adobe.com/Variables/1.0/">
	<!ENTITY ns_imrep "http://ns.adobe.com/ImageReplacement/1.0/">
	<!ENTITY ns_sfw "http://ns.adobe.com/SaveForWeb/1.0/">
	<!ENTITY ns_custom "http://ns.adobe.com/GenericCustomNamespace/1.0/">
	<!ENTITY ns_adobe_xpath "http://ns.adobe.com/XPath/1.0/">
]>
<svg version="1.1" id="Layer_1" xmlns:x="&ns_extend;" xmlns:i="&ns_ai;" xmlns:graph="&ns_graphs;"
	 xmlns="http://www.w3.org/2000/svg" xmlns:xlink="http://www.w3.org/1999/xlink" x="0px" y="0px" viewBox="0 0 20 20"
	 style="enable-background:new 0 0 20 20;" xml:space="preserve">
<style type="text/css">
	.st0{fill:#687A9B;}
</style>
<metadata>
	<sfw  xmlns="&ns_sfw;">
		<slices></slices>
		<sliceSourceBounds  bottomLeftOrigin="true" height="57.7" width="59.3" x="0.1" y="-58.4"></sliceSourceBounds>
	</sfw>
</metadata>
<g>
	<path id="Path_1287" class="st0" d="M13.2,19.1c-0.3-0.3-0.6-0.7-0.9-0.6c0,0-0.1,0-0.1,0c-0.1,0.4-0.3,0.4-0.7,0.3
		c-0.2-0.1-0.5,0-0.7,0.2c-0.3,0.3-0.5,0.3-0.8-0.1c-0.2-0.3-0.6-0.2-0.9-0.2c-0.2,0-0.2,0.2-0.3,0.3c0,0.1,0,0.2-0.2,0.2
		c-0.1,0-0.1-0.1-0.1-0.2c-0.1-0.3-0.4-0.4-0.6-0.5c-0.1-0.1-0.1,0-0.2,0.1c-0.2,0.2-0.5,0.1-0.6-0.1c-0.3-0.6-0.9-0.6-1.3-0.7
		c-0.1,0-0.1,0-0.2,0c-0.4,0.4-1,0.2-1.4,0.2C3.9,18,4,17.8,4,17.6c0.1-0.4,0.3-0.8,0.4-1.1c0.2-0.6,0.6-1.1,1.1-1.4
		c0.2-0.1,0.2-0.2,0-0.3c-0.2-0.1-0.4-0.2-0.6-0.2c-0.1,0-0.2,0-0.3-0.1c-0.2-0.2-0.5-0.3-0.8-0.3c-0.1,0-0.2,0-0.2-0.1
		c-0.1,0-0.1-0.1-0.2-0.1C3,14,3,13.6,2.8,13.4c0,0,0,0,0,0c-0.1-0.1,0-0.1,0-0.2c0.1-0.1,0.1-0.2,0.1-0.3c0,0,0-0.1,0.1-0.1
		c0.1-0.2,0.1-0.4-0.2-0.5c-0.2-0.1-0.3-0.4-0.2-0.6c0-0.1,0.1-0.1,0.2-0.2C2.8,11.3,2.9,11.2,3,11c0-0.1,0.2-0.3-0.2-0.3
		c0,0-0.1,0-0.1,0c0.1-0.3-0.3-0.5-0.2-0.8c0,0,0.1-0.1,0-0.1C2.5,9.2,2.8,9,3.1,8.7c0.2-0.2,0.1-0.4,0-0.7C3.1,8,3,7.9,3,7.9
		C2.9,7.8,2.8,7.7,2.9,7.5c0.1-0.1,0.3,0,0.4,0c0.3,0.1,0.6,0,0.9,0c0.2,0,0.2-0.2,0.1-0.3C4.2,7,4.3,7,4.5,6.9
		c0.3-0.1,0.4-0.4,0.4-0.7c0-0.1-0.2-0.1-0.3-0.2S4.4,5.9,4.4,5.8c0-0.1,0.1-0.1,0.2-0.1C4.9,5.9,5,5.8,5,5.5c0-0.1,0-0.2,0.1-0.3
		c0.3-0.3,0.3-0.7,0.1-1.1c-0.1-0.3,0-0.5,0.2-0.7c0.1-0.1,0.2-0.1,0.3,0c0.2,0.1,0.4,0.1,0.7,0.1c0.2,0,0.3,0.1,0.3,0.3
		c0,0.2-0.1,0.3,0.2,0.4c0.3,0.1,0.3,0,0.4-0.2c0.2,0,0.2,0.2,0.4,0.2c0-0.2,0-0.4,0-0.6c0-0.3,0.1-0.3,0.4-0.2
		c0.1,0,0.1,0.1,0.2,0.1c0.1,0.1,0.2,0,0.3-0.1c0.1-0.1,0-0.1-0.1-0.2C8.3,3,8.2,2.9,8.4,2.8c0.2-0.1,0.1-0.2,0-0.3
		C8.3,2.4,8.2,2.4,8.2,2.2c0-0.1,0-0.1-0.3-0.2c0,0,0-0.1,0.1-0.1c0.4,0,0.4,0,0.4-0.4c0-0.2-0.1-0.5-0.1-0.8C8.7,1,9,1,9.4,1
		C9.7,1,10,1.3,9.9,1.6c-0.1,0.1,0,0.3,0.1,0.4c0,0,0,0,0,0c0.2,0.1,0.5,0.3,0.7,0.4c0.1,0.1,0.3,0.1,0.5,0.1c0.1,0,0.2-0.1,0.2,0
		c0,0.1,0,0.2-0.1,0.3c0,0-0.1,0-0.1,0c-0.1,0-0.4-0.1-0.3,0.2c0.1,0.2,0.1,0.5,0.5,0.3c0.1-0.1,0.2,0,0.3,0.1c0,0,0,0.1,0,0.1
		c0.1,0.2,0.3,0.2,0.4,0.2c0.2,0,0.1-0.2,0.1-0.3c0-0.3,0.3-0.5,0.5-0.5c0,0,0.1,0,0.1,0c0.3,0.1,0.5-0.1,0.7-0.2
		c0.2-0.2,0.5-0.2,0.7-0.2c0.2,0,0.3,0.1,0.4,0.2c0.1,0.1,0.2,0.1,0.2,0c0.1-0.1,0.3-0.2,0.1-0.5c-0.1-0.1,0.1-0.1,0.1-0.1
		c0.1,0,0.4,0.4,0.4,0.5c-0.1,0-0.1,0-0.2,0c-0.2,0-0.3,0.1-0.4,0.2c-0.1,0.1,0,0.2,0.1,0.2c0.1,0.1,0.1,0.3,0.4,0.3
		c0.1,0,0.2-0.1,0.3,0c0.1,0.2,0.2,0.3,0.1,0.5c-0.2,0.2,0,0.3,0.2,0.3c0.4,0,0.4,0.2,0.5,0.5c0,0.3,0.2,0.7,0,1
		C16.6,5.9,16.5,6,16.4,6c-0.3,0.2-0.3,0.6,0,0.8c0.1,0,0.1,0.1,0.2,0.1c0.3,0.1,0.5,0.2,0.3,0.5c-0.1,0.1,0,0.2,0.1,0.3
		c0.3,0.4,0.3,0.6,0,1c-0.1,0.1-0.1,0.2-0.1,0.3c0.1,0.4,0.2,0.8,0.5,1.2c0.2,0.2,0.1,0.9-0.1,1c-0.1,0.1-0.2,0.1-0.2-0.1
		c0-0.1,0-0.3-0.2-0.4c-0.2,0-0.4-0.1-0.7-0.1c-0.2,0-0.1,0.1-0.1,0.2c0.1,0.2,0,0.2-0.1,0.2c-0.3,0.1-0.6,0.3-1,0.3
		c-0.1,0-0.1,0.1-0.1,0.1c0,0.1-0.1,0.1-0.1,0.1c-0.3-0.1-0.4,0.1-0.6,0.3c-0.1,0.1-0.2,0.2-0.4,0.1c-0.2-0.1-0.5,0-0.7,0.1
		c-0.2,0.1-0.4,0.2-0.6,0.2c-0.1,0-0.1,0-0.1,0.1c0.1,0.3,0,0.7,0.5,0.8c0.1,0,0.1,0.1,0.1,0.2c0,0.1-0.1,0.1-0.2,0.1
		c-0.2,0-0.2,0.1-0.1,0.3c0.1,0.2,0.3,0.5,0.4,0.7c0.1,0.3,0.2,0.5,0.6,0.5c0.2,0,0.2,0.1,0.3,0.2c0.3,0.4,0.5,0.8,1,1
		c0.2,0.1,0.1,0.2,0.1,0.4c0,0.1-0.1,0.2-0.3,0.2c-0.1,0-0.3,0-0.3,0.1c0,0,0,0.1,0,0.1c0,0.3-0.3,0.4-0.5,0.3
		c-0.5-0.1-0.6,0.2-0.8,0.5c-0.1,0.1,0,0.2,0.1,0.3c0.3,0.3,0.3,0.7,0.4,1.1C13.5,19.3,13.4,19.2,13.2,19.1z"/>
</g>
</svg>
