<?xml version="1.0" encoding="utf-8"?>
<!-- Generator: Adobe Illustrator 24.3.0, SVG Export Plug-In . SVG Version: 6.00 Build 0)  -->
<!DOCTYPE svg PUBLIC "-//W3C//DTD SVG 1.1//EN" "http://www.w3.org/Graphics/SVG/1.1/DTD/svg11.dtd" [
	<!ENTITY ns_extend "http://ns.adobe.com/Extensibility/1.0/">
	<!ENTITY ns_ai "http://ns.adobe.com/AdobeIllustrator/10.0/">
	<!ENTITY ns_graphs "http://ns.adobe.com/Graphs/1.0/">
	<!ENTITY ns_vars "http://ns.adobe.com/Variables/1.0/">
	<!ENTITY ns_imrep "http://ns.adobe.com/ImageReplacement/1.0/">
	<!ENTITY ns_sfw "http://ns.adobe.com/SaveForWeb/1.0/">
	<!ENTITY ns_custom "http://ns.adobe.com/GenericCustomNamespace/1.0/">
	<!ENTITY ns_adobe_xpath "http://ns.adobe.com/XPath/1.0/">
]>
<svg version="1.1" id="Layer_1" xmlns:x="&ns_extend;" xmlns:i="&ns_ai;" xmlns:graph="&ns_graphs;"
	 xmlns="http://www.w3.org/2000/svg" xmlns:xlink="http://www.w3.org/1999/xlink" x="0px" y="0px" viewBox="0 0 357.3 82.5"
	 style="enable-background:new 0 0 357.3 82.5;" xml:space="preserve">
<style type="text/css">
	.st0{clip-path:url(#SVGID_2_);fill-rule:evenodd;clip-rule:evenodd;fill:#5E7E64;}
	.st1{clip-path:url(#SVGID_2_);fill-rule:evenodd;clip-rule:evenodd;fill:#86B94F;}
	.st2{clip-path:url(#SVGID_2_);}
	.st3{clip-path:url(#SVGID_2_);fill-rule:evenodd;clip-rule:evenodd;}
</style>
<metadata>
	<sfw  xmlns="&ns_sfw;">
		<slices></slices>
		<sliceSourceBounds  bottomLeftOrigin="true" height="70.3" width="331.9" x="118" y="-396"></sliceSourceBounds>
	</sfw>
</metadata>
<g>
	<defs>
		<rect id="SVGID_1_" x="7" y="3.2" width="331.7" height="70.3"/>
	</defs>
	<clipPath id="SVGID_2_">
		<use xlink:href="#SVGID_1_"  style="overflow:visible;"/>
	</clipPath>
	<path class="st0" d="M68.2,55.2c1.2,0.7,2.5,0.6,3.2,0.3c0.7-0.3,2.3-1.6,3.3-3c0.5-0.6,4.3-4.9-0.2-9.9L59.2,27
		c1.2,0,2.4-3.3,0.4-5.4c0,0-15.1-14.9-15-14.9c-2.4-2.1-3.5-3.1-5.3-3.1c0,0-2.4,0-2.4,0c-1.1,0-1.7,0.9-1.7,2v12.2
		c0,1.2,0.1,2.3,0.9,2.9c0,0-27.2,0-27.2,0c-0.8,0-1.5,0.2-1.9,1.1c-0.4,0.9,0,1.4,0.3,2c0,0,18.5,25.9,18.5,25.9l13.4,0l9.7-7
		l0.8,1c0,0-35.4,26.1-35.4,26c-0.7,0.6-0.9,1.7-0.7,2.2c0.2,0.6,0.7,1.6,1.6,1.6h19.6c1.7,0,3.6-1.3,3.6-3.2c0,0,0-5.5,0-5.5
		c0-2,0.1-2,2.7-2h4c-1.2,0.7-3.3,1.7-3.4,1.7c-0.1,0.1-0.2,0.4-0.4,0.8c-0.1,0.4-0.7,2.5-0.8,2.6c-0.1,0.1-0.2,0.4-0.1,0.7
		c0,0.3,0.1,0.9,0.1,0.9h34.9V67H43.7c0,0,0.4-0.8,0.6-0.9c0.1-0.1,4.9-2.5,6.2-3.2h1.8c3.8,0,6.2-0.9,8.2-4.1
		c0-0.1,3.9-7.1,4.2-7.4c0.5-0.4,1.4-1.6,3.2-1.4c1.4,0.1,2.6,1.3,2.9,2.5c0.3,1.2-0.3,1.6-0.4,1.7C70.1,54.5,68.9,55,68.2,55.2"/>
	<path class="st1" d="M10.1,23.2l17.2,24h11.2l11-8l3.8,4.9l-36.5,27c0,0,16.5,0,16.5,0c1.9,0,2.7-0.6,2.8-2.3c0,0,0-5.3,0-5.4
		c0-2.8,1.6-3.1,4.3-3.1h5.2c0,0,6.5,0,6.5,0c1.8,0,4.3-0.4,5.5-1.6c1-1.1,3.5-6,4.6-7.9c0.5-0.9,1.4-3,5.4-3.1
		c2.8-0.1,4.7,2.5,5.2,3.9c1.2-1.2,3.1-4.2,0.2-7.5c0,0-17.5-17-17.4-17c-3.6-3.3-8.9-3.8-11.2-3.8C44.3,23.2,10.1,23.2,10.1,23.2
		 M39.9,6.1C41.6,6.7,51.5,17,51.5,17c4.6,4.7,7.4,6.5,5.6,8.2c-2.3-2-6-4.4-11.7-4.4c0,0-5.4,0-5.4,0c-1.4,0-2.2-0.6-2.2-2.3
		c0,0,0-12.6,0-12.6S39.1,5.8,39.9,6.1"/>
	<path class="st0" d="M73.2,47.6c0,0.5-0.4,0.9-0.9,0.9c-0.5,0-0.9-0.4-0.9-0.9c0-0.5,0.4-0.9,0.9-0.9
		C72.8,46.7,73.2,47.1,73.2,47.6"/>
	<path class="st2" d="M82.9,30.5h11.2c0,0,10.1,0,10.1,0c6.7,0,5.1,4.9,4,6.1c-3.1,3.4-5.7,4.4-8.1,5.7v-10H88.9v30.5h11.1
		c0,0,0-9.9,0-9.9c1.1-0.4,7.9-4.1,10.7-5.8c0.9-0.5,5.8-3.5,8.5-8.3c2.1-3.7,1.6-8.6,0-11.6c-1.6-3.1-5.8-6.5-11.7-6.5
		c0.1,0-18.8,0-18.8,0c-2.2,0-3.8,1.1-4.4,3.2C84.6,23.9,82.9,30.5,82.9,30.5"/>
	<path class="st2" d="M264.3,32.6c-0.3-3.9-1.4-6.2-4.2-8.6c-2.2-1.8-6.2-3.3-11-3.3h-24.3c0,0-15.8,0-15.8,0
		c-3.8,0-8.7,0.8-10.8,4.5c-2.1,3.7-1.7,8.4,1.3,11.9c0,0,11.2,12.5,11.1,12.6c1.2,1.7,0.5,3.4-1.2,3.4h-17.3V20.7h-11.1v14.8
		l-12.2-14.8h-53.2c4.6,1.7,7,5.7,7.3,9.8c0,0,1,0,1,0h1.4v32.3h26.7l2.5-9.7h-18.1v-6.7h12.7l2.3-9.7h-15v-6.2h21.7v32.3H169V37
		l11.9,13.5v12.3c0,0,30.8,0,30.8,0c4.2,0,9.5-0.8,11.7-4.4c2.2-3.6,1.2-7.9-1.6-11.9c0.1,0-11.1-12.6-11.1-12.7
		c-1.1-1.5-1.4-3.4,1.5-3.4c-0.1,0.1,32.2,0.1,32.2,0c6.9,0,7.1,3.6,7.3,5.1c0.8,6.1-0.4,10.6-1,12.6c-1.4,4.6-4,5.8-5.7,5.8
		c-1.5,0-4.2-1-5.6-5.9c-0.8-2.6-2.2-10.9-0.2-15.7c0,0.1-13.5,0.1-13.5,0c-0.4,11.7,1.7,17.2,3.7,20.9c3.8,6.8,9,10.6,15.6,10.6
		c7.7,0,11.8-3.9,15.8-10.7C262.8,49.7,265.1,42.8,264.3,32.6"/>
	<path class="st2" d="M259,20.7c4.5,2.1,6.9,5,7.7,9.7c0,0,3.4,0,3.4,0l0,30.9c0,4.8,1.1,7.1,1.8,8.9c0,0,10.6-6.5,10.6-6.5
		c-1-2.3-1.2-4.8-1.3-6.3c0,0,0-10.5,0-10.5h13l2.8-9.7h-15.8v-6.8h26.8v32.4h11.1V30.5h14.4c0,0-1.6-6.9-1.6-6.8
		c-0.6-2.1-2.3-2.9-4.6-2.9h-18.6H259z"/>
	<rect x="280.4" y="66.9" class="st3" width="38.7" height="2.6"/>
	<polygon class="st3" points="75.3,67 268.2,67 268.2,69.5 75.3,69.6 	"/>
	<path class="st3" d="M328.8,66.6h1.1v-2.1h1.2c0.8,0,0.9,0.3,0.9,1c0,0.6,0,0.8,0.1,1.1h1.3v-0.1c-0.3-0.1-0.3-0.3-0.3-1.1
		c0-1-0.2-1.2-0.7-1.4c0.5-0.2,0.9-0.7,0.9-1.3c0-0.5-0.3-1.5-1.7-1.5h-2.8V66.6z M330,63.5V62h1.4c0.7,0,0.8,0.4,0.8,0.7
		c0,0.5-0.3,0.7-0.9,0.7H330z M326.3,63.8c0,2.6,2.1,4.7,4.7,4.7c2.6,0,4.7-2.1,4.7-4.7c0-2.6-2.1-4.7-4.7-4.7
		C328.4,59.2,326.3,61.3,326.3,63.8 M337.1,63.8c0,3.4-2.7,6.1-6.1,6.1c-3.4,0-6.1-2.8-6.1-6.1c0-3.4,2.7-6.1,6.1-6.1
		C334.4,57.7,337.1,60.5,337.1,63.8"/>
</g>
</svg>
