<?xml version="1.0" encoding="utf-8"?>
<!-- Generator: Adobe Illustrator 24.3.0, SVG Export Plug-In . SVG Version: 6.00 Build 0)  -->
<!DOCTYPE svg PUBLIC "-//W3C//DTD SVG 1.1//EN" "http://www.w3.org/Graphics/SVG/1.1/DTD/svg11.dtd" [
	<!ENTITY ns_extend "http://ns.adobe.com/Extensibility/1.0/">
	<!ENTITY ns_ai "http://ns.adobe.com/AdobeIllustrator/10.0/">
	<!ENTITY ns_graphs "http://ns.adobe.com/Graphs/1.0/">
	<!ENTITY ns_vars "http://ns.adobe.com/Variables/1.0/">
	<!ENTITY ns_imrep "http://ns.adobe.com/ImageReplacement/1.0/">
	<!ENTITY ns_sfw "http://ns.adobe.com/SaveForWeb/1.0/">
	<!ENTITY ns_custom "http://ns.adobe.com/GenericCustomNamespace/1.0/">
	<!ENTITY ns_adobe_xpath "http://ns.adobe.com/XPath/1.0/">
]>
<svg version="1.1" id="Layer_1" xmlns:x="&ns_extend;" xmlns:i="&ns_ai;" xmlns:graph="&ns_graphs;"
	 xmlns="http://www.w3.org/2000/svg" xmlns:xlink="http://www.w3.org/1999/xlink" x="0px" y="0px" viewBox="0 0 20 20"
	 style="enable-background:new 0 0 20 20;" xml:space="preserve">
<style type="text/css">
	.st0{fill:#687A9B;}
</style>
<metadata>
	<sfw  xmlns="&ns_sfw;">
		<slices></slices>
		<sliceSourceBounds  bottomLeftOrigin="true" height="57.7" width="59.3" x="0.1" y="-58.4"></sliceSourceBounds>
	</sfw>
</metadata>
<g id="NZcU9G_1_">
	<g>
		<path class="st0" d="M0.7,14.1c0.1-0.1,0.1-0.3,0-0.4c0-0.1,0-0.1,0.1-0.2c0.1-0.1,0.2-0.1,0.4-0.1c0.1,0,0.1,0,0.1-0.1
			c0-0.2,0.1-0.3,0.1-0.5c0.1-0.2,0-0.3-0.1-0.3c-0.1-0.1-0.2-0.3-0.1-0.5c0.1-0.1,0.1-0.2,0.2-0.3c0.1-0.1,0.1-0.2,0-0.3
			c0-0.1,0-0.1,0-0.2c0.2-0.2,0.5-0.5,0.8-0.6c0.2-0.1,0.3-0.2,0.4-0.3c0.1,0,0.1-0.1,0-0.2c-0.1-0.1,0-0.3,0-0.4c0-0.1,0-0.2,0-0.3
			c-0.1-0.2,0-0.3,0.2-0.4C2.9,9.1,3,9.1,3.1,9c0.2,0,0.3-0.1,0.4-0.3c0,0,0.1-0.1,0.1-0.2c0-0.1,0.1-0.2,0.1-0.3
			c0.1-0.2,0.3-0.3,0.5-0.4c0.2-0.2,0.3-0.4,0.5-0.5c0,0,0.1-0.1,0.1-0.1C4.7,7.1,4.9,7,5,6.9c0,0,0.1-0.1,0.1-0.1
			c0-0.1-0.1-0.1-0.2-0.1c-0.1,0-0.2,0-0.4,0c0,0-0.1,0-0.1,0c0,0,0-0.1,0-0.1c0.1-0.1,0.2-0.3,0.3-0.3c0.1,0,0.1-0.1,0.1-0.2
			C4.8,5.9,4.9,5.8,5,5.9c0.2,0,0.4,0,0.6,0.1c0.1,0,0.1,0,0.1,0.1c0,0.2,0.2,0.4,0.3,0.3c0.1,0,0.2-0.1,0.4,0
			c0.2,0,0.3-0.1,0.3-0.3c0-0.1,0-0.1,0.1-0.1c0.1,0,0.1,0,0.2-0.1c0.1-0.1,0-0.2,0.1-0.3c0.2-0.1,0.4-0.2,0.5-0.2c0,0,0.1,0,0.1,0
			c0,0,0,0.1,0,0.1c-0.1,0.1,0,0.2,0.1,0.2c0.2,0,0.4,0,0.5-0.2c0.1-0.1,0.4-0.1,0.4,0c0,0,0,0.1,0.1,0.1c0.1,0.1,0.6,0,0.8-0.1
			c0.2-0.1,0.3-0.2,0.5-0.2c0.1,0,0.2,0,0.3,0.1c0.1,0.2,0.5,0.2,0.6,0c0.1-0.1,0.3-0.2,0.4,0c0,0,0,0.1,0.1,0c0,0,0-0.1,0-0.1
			c0-0.1,0-0.1,0.1-0.2c0,0,0-0.1-0.1-0.1c-0.1,0-0.2,0-0.3,0.1C11,5.1,11,5,10.9,4.9c-0.1-0.1-0.1-0.1-0.1-0.2
			c0.1-0.2,0.2-0.3,0.3-0.5c0,0,0.1,0,0.2,0c0,0,0.1,0,0.1-0.1c0-0.1,0-0.1,0.1-0.1c0.1,0,0.1,0.1,0.2,0.2c0,0,0,0,0,0.1
			c0.1,0,0.1-0.1,0.1-0.1c0,0,0,0,0.1,0c0,0,0.1,0,0.1,0c0,0.1,0.3,0.1,0.2,0.3c0,0.1,0,0.2,0.1,0.2c0.1,0,0.1,0,0.1-0.1
			c0-0.1,0.1-0.1,0.2,0c0.1,0,0.2,0.1,0.2,0.2c0,0.2,0.1,0.2,0.2,0.2c0.1,0,0.2,0,0.3-0.1c0.1-0.1,0.3-0.1,0.4-0.1c0,0,0.1,0,0.1,0
			c0.4,0,0.7,0.1,1,0.3c0.2,0.2,0.5,0.3,0.7,0.5c0.1,0,0.1,0.1,0.2,0.2c0,0.1,0.1,0.2,0.2,0.3c0.2,0.1,0.3,0.3,0.1,0.5
			c-0.2,0.3-0.3,0.5-0.5,0.8c-0.2,0.2-0.2,0.5-0.1,0.7c0.1,0.1,0,0.3-0.1,0.4c-0.1,0.1,0,0.1,0.1,0.1c0.1,0,0.3,0,0.4,0
			c0.4,0,0.6,0.1,1,0.2c0.1,0,0.1,0.1,0.1,0.2c0,0.3,0,0.4,0.3,0.5c0.1,0,0.3,0.1,0.4,0.2c0.2,0.1,0.3,0.2,0.5,0.1
			c0.1,0,0.1-0.1,0.2-0.2c0-0.1,0.1-0.2,0.2-0.2c0.1,0,0.1,0,0.1-0.1c0-0.1,0.1-0.1,0.1-0.2c0.2-0.2,0.2-0.2,0.4,0
			c0,0,0.1,0.1,0.1,0.1c0.1,0.1,0.2,0.2,0.1,0.3c0,0.1,0,0.2,0,0.3c0,0.1,0,0.2-0.1,0.2c-0.1,0.1-0.1,0.2-0.1,0.3c0,0,0,0.1,0,0.1
			c-0.1,0.1-0.1,0.3-0.2,0.4c-0.1,0.1,0,0.3,0.1,0.3c0.1,0,0.2,0.1,0.2,0.2c0,0.1,0,0.3-0.1,0.4c0,0.1-0.1,0-0.2,0
			c-0.1,0-0.2-0.1-0.4-0.1c-0.1,0-0.2-0.1-0.3-0.1c-0.1,0-0.1-0.1-0.1-0.2c0-0.1-0.1-0.1-0.1-0.1c-0.2,0-0.4,0.1-0.5,0.3
			c0,0,0,0.1-0.1,0.1c-0.1,0.1-0.1,0.3-0.1,0.5c0,0.3,0.1,0.3,0.3,0.3c0.1,0,0.2,0.2,0.1,0.3c-0.2,0.2-0.2,0.2,0,0.5
			c0.1,0.1,0.2,0.2,0.1,0.3c-0.1,0.1-0.3,0.2-0.4,0.2c0,0-0.1,0-0.1-0.1c0-0.1-0.1-0.2-0.2-0.3c-0.1-0.1-0.1-0.2-0.1-0.3
			c0-0.2-0.1-0.3-0.3-0.3c-0.1,0-0.2,0.1-0.3,0.1c-0.1,0.1-0.2,0.1-0.3,0.1c-0.1,0-0.1,0-0.1,0.1c0,0.2-0.1,0.2-0.3,0.2
			c-0.1,0-0.2,0-0.3,0c-0.1,0-0.2,0-0.2-0.1c-0.2-0.2-0.4-0.4-0.4-0.7c0-0.1,0-0.3,0-0.4c0,0,0-0.1,0-0.1c0,0-0.1,0-0.1,0
			c-0.1,0.1-0.2,0.1-0.2,0c-0.1-0.1-0.2-0.1-0.3,0c-0.1,0.1-0.1,0.2-0.1,0.4c0.1,0.2,0.2,0.5,0,0.8c-0.1,0.1-0.1,0.2-0.1,0.3
			c-0.1,0.2-0.2,0.4-0.4,0.5c-0.2,0.1-0.3,0.2-0.3,0.4c0,0.1-0.1,0.1-0.1,0.2c-0.1,0.1-0.2,0.1-0.1,0.3c0,0,0,0.1,0,0.1
			c-0.1,0.1-0.1,0.3,0.1,0.4c0.1,0.1,0.1,0.2,0.1,0.3c0,0.1-0.1,0.2-0.1,0.3C13.3,16,13.2,16,13.1,16c-0.1-0.1-0.2,0-0.3-0.1
			c0-0.1,0-0.2,0-0.3c0-0.3-0.2-0.5-0.4-0.6c-0.2,0-0.1-0.1-0.1-0.2c0-0.1,0.1-0.1,0.1-0.2c0.1-0.1,0-0.2,0-0.2
			c-0.1-0.1-0.3-0.1-0.4-0.1c-0.3,0.1-0.4-0.1-0.5-0.2c-0.1-0.1-0.1-0.2-0.2-0.2c-0.1-0.1-0.2-0.2-0.3-0.3c-0.2-0.1-0.2-0.2-0.2-0.3
			c0-0.2,0.1-0.4,0.1-0.6c0,0,0-0.1,0-0.1c0-0.1,0-0.3-0.1-0.3c-0.1,0-0.4,0.1-0.4,0.2c0,0,0,0,0,0.1c0.1,0.2-0.1,0.3-0.2,0.4
			C10.1,12.9,10,13,10,13c-0.1,0.1-0.2,0.1-0.3,0.2c-0.1,0-0.1,0-0.2,0.1c-0.1,0.1-0.1,0.1,0,0.2c0.3,0.3,0.1,0.8-0.2,0.9
			c-0.1,0-0.1,0.1-0.1,0.1c0,0.1,0,0.1,0,0.2c0,0.2-0.1,0.3-0.3,0.3c-0.1,0-0.2,0.1-0.3,0.2c-0.1,0.2-0.2,0.2-0.4,0.2
			c-0.2,0-0.4,0-0.5-0.2c-0.1-0.1-0.3-0.1-0.5-0.1c0,0-0.1,0-0.1,0c-0.1,0.2-0.3,0.2-0.5,0.3c-0.1,0.1-0.2,0.1-0.3,0.1
			c-0.1,0-0.3,0-0.4,0.1c-0.1,0-0.1,0.1-0.2,0.1c-0.3,0.1-0.7,0-0.8-0.4c-0.1-0.2-0.2-0.4-0.3-0.6c0,0-0.1-0.1-0.1-0.1
			c-0.2,0-0.2-0.1-0.2-0.2c0.1-0.2,0-0.2-0.2-0.2C4,14.1,4,14.1,4,13.9c0-0.1,0.1-0.3,0.1-0.4c0.1-0.1,0-0.2,0-0.3
			c0,0-0.1-0.1-0.1-0.1c-0.1-0.1-0.1-0.2,0-0.3c0.2-0.2,0.1-0.3-0.1-0.4c-0.3-0.1-0.6-0.2-0.9-0.1c0,0-0.1,0-0.1,0
			c-0.2,0.1-0.4,0.2-0.6,0.3c-0.2,0-0.3,0.2-0.4,0.4c-0.1,0.1,0.1,0.3,0.2,0.4c0.1,0,0.1,0.1,0,0.2c0,0.1-0.1,0.1-0.2,0.1
			c-0.1,0.1-0.2,0.2-0.3,0.3c-0.1,0.1-0.2,0.2-0.3,0.1C1,14,0.8,14.1,0.7,14.1z"/>
	</g>
</g>
</svg>
