<?xml version="1.0" encoding="utf-8"?>
<!-- Generator: Adobe Illustrator 20.1.0, SVG Export Plug-In . SVG Version: 6.00 Build 0)  -->
<svg version="1.1" id="Layer_1" xmlns="http://www.w3.org/2000/svg" xmlns:xlink="http://www.w3.org/1999/xlink" x="0px" y="0px"
	 viewBox="0 0 90 90" style="enable-background:new 0 0 90 90;" xml:space="preserve">
<style type="text/css">
	.st0{fill:#FFFFFF;}
</style>
<g>
	<path id="Path_806" class="st0" d="M35.7,56c1.3,0.1,2.5-0.4,3.4-1.3c1.4-1.4,2.9-2.8,4.3-4.3c0.8-1.1,1.5-2.3,2-3.5
		c0.5-1,0.5-1,1.3-0.2c6.5,6.5,13,13,19.5,19.5c0.3,0.3,0.6,0.6,0.9,0.8c0.6,0.6,1.6,0.6,2.2,0c0,0,0.1-0.1,0.1-0.1
		c1.5-1.5,3-3,4.5-4.5c0.7-0.6,0.7-1.7,0.1-2.3c-0.1-0.1-0.2-0.1-0.2-0.2c-1.9-2-3.9-3.9-5.9-5.9c-4.8-4.8-9.5-9.5-14.3-14.3
		c-0.6-0.6-0.7-0.9,0.2-1.3c3.6-1.3,5.8-4.2,8.2-6.8c1.6-1.8,1.5-4.5-0.2-6.1c-2.3-2.5-4.7-4.8-7.2-7.1c-2-1.8-5-1.6-6.8,0.3
		c-1.3,1.3-2.6,2.6-3.9,3.8c-0.4,0.5-0.8,1-1.1,1.5c-1.1,2.3-2.3,4.5-3.4,6.8c-0.3,0.7-0.8,1.2-1.5,1.5c-1.9,0.9-3.7,1.9-5.6,2.8
		c-1.5,0.7-2.9,1.8-4.1,3.1c-0.9,1-1.9,1.9-2.8,2.8c-1.9,1.8-1.9,4.8-0.1,6.7c0,0,0,0,0,0c2.2,2.3,4.5,4.6,6.8,6.9
		C33.2,55.5,34.4,56,35.7,56z M41.8,45.8c-0.2-0.1-0.3-0.3-0.5-0.4c-2.2-2.2-4.4-4.4-6.7-6.6c-0.5-0.5-0.4-0.7,0.2-1
		c1.9-0.9,3.7-1.9,5.6-2.8c0.7-0.3,1.2-0.8,1.5-1.5c0.9-1.8,1.8-3.6,2.7-5.5c0.3-0.7,0.5-0.9,1.2-0.2c2.2,2.2,4.4,4.4,6.6,6.6
		c0.5,0.5,0.4,0.7-0.2,1c-1.8,0.8-3.5,1.8-5.2,2.6c-0.9,0.4-1.7,1.2-2.1,2.1c-0.8,1.8-1.7,3.5-2.6,5.2
		C42.3,45.5,42.2,45.8,41.8,45.8z M68.2,63.2c-0.2-0.2-0.4-0.4-0.6-0.6c-6.4-6.4-12.8-12.8-19.2-19.2c-0.8-0.8-0.8-1.3-0.1-2.1
		c0.4-0.6,1.2-0.8,1.8-0.4c0.1,0.1,0.3,0.2,0.4,0.3c6.3,6.3,12.5,12.5,18.8,18.8c1.3,1.3,1.3,1,0,2.3C68.9,62.7,68.7,63.1,68.2,63.2
		z M35.7,52.6c-0.5,0-0.9-0.3-1.2-0.6c-2.1-2.1-4.3-4.2-6.4-6.4c-0.7-0.5-0.8-1.5-0.3-2.2c0.1-0.1,0.2-0.2,0.3-0.3
		c0.9-0.9,1.7-1.7,2.6-2.6c0.4-0.4,0.7-0.4,1,0c2.6,2.6,5.2,5.2,7.8,7.8c0.4,0.4,0.4,0.7,0,1.1c-0.9,0.8-1.7,1.7-2.6,2.6
		C36.6,52.4,36.2,52.6,35.7,52.6z M59.6,28.8c0,0.4-0.1,0.8-0.4,1.1c-0.9,0.9-1.9,1.9-2.8,2.8c-0.3,0.4-0.6,0.3-0.9,0
		c-2.6-2.6-5.2-5.2-7.8-7.8c-0.3-0.2-0.4-0.6-0.2-0.9c0-0.1,0.1-0.1,0.2-0.2c0.9-0.8,1.7-1.7,2.6-2.6c0.5-0.7,1.4-0.8,2.1-0.3
		c0.1,0.1,0.2,0.2,0.3,0.4c2.1,2.1,4.3,4.2,6.4,6.4C59.4,27.9,59.6,28.3,59.6,28.8z"/>
	<path id="Path_807" class="st0" d="M30,72.8c4.3,0,8.6,0,13,0c1,0,1.4-0.2,1.3-1.3c-0.1-2.4,0.2-2.1-2.1-2.1
		c-0.7,0.1-1.3-0.3-1.5-1c0,0,0-0.1,0-0.1c-1.5-6-7.6-9.6-13.6-8c-3.9,1-7,4.1-8,8c-0.3,1-0.7,1.2-1.6,1.2c-2.1,0-1.9-0.3-1.9,1.9
		c0,1.4,0,1.4,1.4,1.4L30,72.8z M29.9,69.5c-2.2,0-4.4,0-6.5,0c-1.1,0-1.1-0.1-0.7-1.1c1.5-4,6-6.1,10-4.6c2.1,0.8,3.8,2.5,4.6,4.6
		c0.4,1,0.3,1.1-0.7,1.1C34.3,69.5,32.1,69.5,29.9,69.5z"/>
</g>
</svg>
