<?xml version="1.0" encoding="utf-8"?>
<!-- Generator: Adobe Illustrator 20.1.0, SVG Export Plug-In . SVG Version: 6.00 Build 0)  -->
<svg version="1.1" xmlns="http://www.w3.org/2000/svg" xmlns:xlink="http://www.w3.org/1999/xlink" x="0px" y="0px"
	 viewBox="0 0 50 50" style="enable-background:new 0 0 50 50;" xml:space="preserve">
<style type="text/css">
	.st0{display:none;}
	.st1{display:inline;fill:#FFFFFF;stroke:#000000;stroke-width:0.25;stroke-miterlimit:10;}
	.st2{display:inline;fill:none;stroke:#000000;stroke-width:0.25;stroke-miterlimit:10;}
	.st3{fill:#B0182E;}
	.st4{fill:#2B2B2D;}
</style>
<g id="Layer_1" class="st0">
	<rect x="0" y="0" class="st1" width="50" height="50"/>
	<circle class="st1" cx="25" cy="25" r="25"/>
	<line class="st2" x1="0" y1="0" x2="50" y2="50"/>
	<line class="st2" x1="50" y1="0" x2="0" y2="50"/>
	<rect x="0" y="12.7" class="st2" width="50" height="24.6"/>
	<line class="st2" x1="0" y1="25" x2="50" y2="25"/>
	<rect x="12.7" y="0" class="st2" width="24.6" height="50"/>
	<line class="st2" x1="25" y1="0" x2="25" y2="50"/>
	<rect x="7.3" y="7.3" class="st2" width="35.4" height="35.4"/>
	<circle class="st2" cx="25" cy="25" r="17.7"/>
	<circle class="st2" cx="25" cy="25" r="12.3"/>
</g>
<g id="Layer_2">
	<g>
		<path class="st3" d="M13.7,21.3C13.6,21.3,13.6,21.4,13.7,21.3c-0.2,0.2-0.3,0.3-0.4,0.4c-0.2,0.2-0.2,0.1,0,0.3
			c0.2,0.1,0.5,0.3,0.7,0.5c0,0,0,0.1,0,0.1h0l0,0c0.3-0.3,0.6-0.5,0.9-0.7c0,0,0,0,0-0.1c0,0,0,0,0,0c0,0,0,0,0,0
			c-0.5-0.5-1-1-1.5-1.4c-0.3-0.2-0.6-0.4-0.9-0.5c-0.1,0-0.3-0.1-0.6-0.1c0,0,0,0-0.1,0c-0.4,0-0.8,0-1.3,0.1
			c-0.4,0.1-0.8,0.4-1.1,0.8c-0.3,0.4-0.6,0.9-0.7,1.4c-0.1,0.6-0.1,1.1-0.1,1.7c0,0.4,0.1,0.9,0.2,1.4c0.5,1.7,1.4,3.1,2.8,4.2
			c0.4,0.3,0.9,0.6,1.4,0.7c0.2,0,0.5,0.1,0.7,0.1c0.2,0,0.5,0,0.8,0c0.6-0.1,1.1-0.4,1.5-0.7c0.4-0.3,0.8-0.6,1.2-1
			c0.5-0.5,0.9-1.1,1.3-1.8c0.3-0.7,0.6-1.4,0.7-2.2c0.1-0.5,0.1-1.1,0.1-1.6c0-0.6-0.2-1.1-0.5-1.6c-0.1-0.2-0.3-0.5-0.5-0.7
			c-0.5-0.4-1.1-0.7-1.7-0.7c0,0-0.1,0-0.2,0c-0.3,0-0.6,0-0.9,0.2c0,0-0.1,0-0.2,0.1c0,0,0,0-0.1,0c0,0,0,0,0,0
			c-0.3-0.2-0.5-0.5-0.8-0.7c0,0,0,0,0-0.1l0,0c0.4-0.2,0.9-0.4,1.3-0.5c0.4,0,0.7-0.1,1.1,0c0.3,0,0.6,0.1,0.8,0.2
			c0.7,0.2,1.3,0.7,1.8,1.3c0.4,0.5,0.7,1.1,0.9,1.8c0.1,0.7,0.2,1.4,0.1,2c0,0.5-0.1,1-0.2,1.4c-0.5,2-1.5,3.6-3.1,4.8
			c-0.3,0.2-0.6,0.5-1,0.7c-0.5,0.3-1.1,0.5-1.7,0.6c-0.4,0-0.8,0-1.2,0c-0.9-0.1-1.6-0.5-2.3-1c-1.6-1.2-2.8-2.8-3.3-4.7
			c-0.1-0.5-0.3-1.1-0.3-1.6s-0.1-1.1,0-1.6c0.2-0.9,0.4-1.6,0.8-2.2c0.4-0.7,1-1.2,1.7-1.5c0.3-0.1,0.7-0.2,1.1-0.3
			c0.1,0,0.3,0,0.4,0c0.5,0,1,0.1,1.4,0.2c0.4,0.1,0.7,0.3,1.1,0.6c0.5,0.3,1,0.7,1.4,1.2c0.2,0.2,0.4,0.5,0.7,0.7
			c0.1,0.1,0.1,0.1,0.2,0.2c0,0,0.1,0,0.1,0c0.1,0,0.2,0,0.3,0c0.2,0,0.4,0,0.6,0.1c0.4,0.1,0.7,0.4,0.9,0.8
			c0.1,0.1,0.2,0.3,0.2,0.6c0.1,0.4,0.1,0.8,0,1.3c-0.3,1.4-1,2.7-2.1,3.8c-0.2,0.2-0.5,0.4-0.8,0.6c-0.3,0.2-0.7,0.4-1.1,0.5
			c-0.3,0.1-0.6,0.1-0.9,0c-0.4-0.1-0.7-0.2-1.1-0.5c-0.5-0.3-0.9-0.7-1.3-1.1c-0.8-1-1.4-2.1-1.6-3.3c-0.1-0.5,0-0.9,0-1.4
			c0-0.1,0.1-0.3,0.1-0.4c0.2-0.5,0.6-0.7,1.1-0.9c0.2,0,0.5,0,0.7,0c0.1,0,0.1,0,0.2-0.1c0.2-0.2,0.4-0.4,0.6-0.7
			c0,0,0.1-0.1,0.1-0.1c0,0,0,0,0.1,0C13,20.8,13.3,21,13.7,21.3C13.6,21.3,13.6,21.3,13.7,21.3z"/>
		<path class="st4" d="M23.4,25.3c0-1.2,0-2.3,0-3.5c0-0.1,0-0.1,0-0.2s0-0.1,0.1-0.1c0,0,0,0,0.1,0c1.5,0,3,0,4.5,0c0,0,0,0,0.1,0
			c0.1,0,0.1,0,0.1,0.1c0,0.1,0,0.3,0,0.4c0,0.1,0,0.3,0,0.5c0,0,0,0,0,0c-0.1,0-0.2,0-0.2,0c-1,0-2.1,0-3.1,0c-0.1,0-0.1,0-0.2,0
			c-0.1,0-0.1,0-0.1,0.1c0,0.5,0,1.1,0,1.6c0,0,0,0,0,0.1l0,0c0.1,0,0.2,0,0.2,0c0.7,0,1.4,0,2.1,0c0,0,0.1,0,0.2,0c0,0,0,0,0,0
			c0,0,0,0,0,0c0,0.3,0,0.6,0,1v0c0,0,0,0,0,0c-0.1,0-0.1,0-0.2,0c-0.7,0-1.4,0-2.1,0c-0.1,0-0.1,0-0.2,0l0,0c0,0,0,0,0,0.1
			c0,0.7,0,1.4,0,2.1c0,0,0,0,0,0.1l0,0c0.1,0,0.2,0,0.2,0c1.1,0,2.2,0,3.3,0c0.1,0,0.2,0,0.2,0c0,0,0,0,0,0.1c0,0.1,0,0.1,0,0.2
			c0,0.8,0,0.8,0,0.8c-0.2,0-0.5,0-0.8,0c-1.3,0-2.6,0-3.9,0c-0.1,0-0.2,0-0.2,0c-0.1,0-0.1,0-0.1-0.1c0-0.2,0-0.4,0-0.6
			C23.4,27.4,23.4,26.4,23.4,25.3z"/>
		<path class="st4" d="M32.7,29.3c-0.6,0-1.2-0.1-1.8-0.4c-0.4-0.2-0.7-0.4-1-0.8c0,0,0,0,0-0.1c0.2-0.2,0.5-0.5,0.7-0.7
			c0,0,0.1,0,0.1,0c0,0,0.1,0.1,0.1,0.1c0.3,0.3,0.7,0.5,1.1,0.6c0.2,0,0.4,0.1,0.6,0.1c0.3,0,0.6,0,0.9-0.1c0.1,0,0.3-0.1,0.4-0.2
			c0.2-0.1,0.3-0.4,0.4-0.6c0-0.1,0-0.2,0-0.3c0-0.2-0.1-0.3-0.2-0.5c-0.1-0.1-0.2-0.1-0.3-0.2c-0.2-0.1-0.4-0.2-0.7-0.3
			c-0.3-0.1-0.6-0.2-0.9-0.3c-0.2-0.1-0.5-0.2-0.8-0.3c-0.2-0.1-0.4-0.2-0.5-0.3c-0.4-0.3-0.6-0.7-0.7-1.2c0-0.2,0-0.3,0-0.5
			c0-0.6,0.3-1.1,0.8-1.4c0.3-0.2,0.6-0.3,1-0.4c0.4-0.1,0.7-0.1,1.1-0.1c0.8,0,1.5,0.4,2.1,1l0,0v0c0,0-0.1,0.1-0.1,0.1
			c-0.2,0.2-0.4,0.4-0.6,0.6c0,0,0,0-0.1,0c0,0-0.1-0.1-0.2-0.1c-0.3-0.3-0.7-0.4-1.1-0.5c-0.3,0-0.6,0-0.9,0
			c-0.1,0-0.3,0.1-0.4,0.1c-0.3,0.1-0.4,0.4-0.4,0.7c0,0.3,0.1,0.5,0.3,0.7c0.1,0.1,0.3,0.1,0.4,0.2c0.2,0.1,0.5,0.2,0.8,0.3
			c0.3,0.1,0.7,0.2,1,0.3c0.2,0.1,0.4,0.2,0.6,0.3c0.1,0.1,0.3,0.2,0.4,0.3c0.3,0.3,0.4,0.6,0.5,1c0,0.4,0,0.9-0.1,1.3
			c-0.1,0.4-0.4,0.7-0.8,1c-0.2,0.1-0.5,0.3-0.8,0.3C33.4,29.3,33.1,29.3,32.7,29.3z"/>
		<path class="st4" d="M40,29.3c-0.4,0-0.9-0.1-1.3-0.3c-0.4-0.2-0.8-0.5-1.1-0.9c-0.3-0.4-0.5-0.9-0.6-1.4
			c-0.1-0.6-0.2-1.2-0.1-1.8c0-0.5,0.1-1,0.3-1.4c0.1-0.4,0.3-0.8,0.6-1.1c0.4-0.5,1-0.8,1.7-1c0.3,0,0.6,0,0.9,0
			c0.2,0,0.5,0,0.7,0.1c0.7,0.2,1.2,0.6,1.5,1.3c0,0,0,0,0,0.1c-0.3,0.2-0.6,0.4-0.9,0.5c0,0-0.1,0-0.1,0c0,0-0.1-0.1-0.1-0.1
			c-0.1-0.1-0.2-0.2-0.3-0.3c-0.2-0.2-0.5-0.3-0.8-0.3c-0.2,0-0.4,0-0.6,0c-0.4,0-0.7,0.2-1,0.4c-0.2,0.1-0.3,0.4-0.4,0.6
			c-0.1,0.3-0.2,0.6-0.3,0.9c0,0.4-0.1,0.8,0,1.2c0,0.4,0.1,0.7,0.2,1.1c0.1,0.2,0.2,0.5,0.4,0.7c0.3,0.4,0.8,0.6,1.3,0.7
			c0.2,0,0.4,0,0.6,0c0.4-0.1,0.7-0.3,1-0.6c0-0.1,0.1-0.1,0.2-0.2c0,0,0.1,0,0.1,0c0.2,0.1,0.5,0.3,0.8,0.5c0.1,0,0.1,0.1,0,0.1
			c-0.4,0.7-1.1,1.2-1.9,1.3C40.5,29.3,40.3,29.3,40,29.3z"/>
	</g>
</g>
</svg>
