<?xml version="1.0" encoding="utf-8"?>
<!-- Generator: Adobe Illustrator 20.1.0, SVG Export Plug-In . SVG Version: 6.00 Build 0)  -->
<svg version="1.1" id="Layer_1" xmlns="http://www.w3.org/2000/svg" xmlns:xlink="http://www.w3.org/1999/xlink" x="0px" y="0px"
	 viewBox="0 0 20 20" style="enable-background:new 0 0 20 20;" xml:space="preserve">
<style type="text/css">
	.st0{display:none;}
	.st1{display:inline;}
	.st2{fill:#FFFFFF;stroke:#1D1D1B;stroke-width:0.25;stroke-miterlimit:10;}
	.st3{fill:none;stroke:#1D1D1B;stroke-width:0.25;stroke-miterlimit:10;}
	.st4{fill:#D8D8D8;}
</style>
<g id="Layer_2" class="st0">
	<g class="st1">
		<rect class="st2" width="20" height="20"/>
		<circle class="st2" cx="10" cy="10" r="10"/>
		<line class="st3" x1="0" y1="0" x2="20" y2="20"/>
		<line class="st3" x1="20" y1="0" x2="0" y2="20"/>
		<rect y="5.1" class="st3" width="20" height="9.8"/>
		<line class="st3" x1="0" y1="10" x2="20" y2="10"/>
		<rect x="5.1" class="st3" width="9.8" height="20"/>
		<line class="st3" x1="10" y1="0" x2="10" y2="20"/>
		<rect x="2.9" y="2.9" class="st3" width="14.1" height="14.1"/>
		<circle class="st3" cx="10" cy="10" r="7.1"/>
		<circle class="st3" cx="10" cy="10" r="4.9"/>
	</g>
</g>
<g id="Layer_1_1_">
	<g id="Group_189" transform="translate(-310.5 -22.5)">
		<path class="st4" d="M326.8,28.8h-12.4c-0.4,0-0.8-0.4-0.8-0.9s0.4-0.9,0.8-0.9h12.4c0.4,0,0.8,0.4,0.8,0.9
			C327.6,28.4,327.2,28.8,326.8,28.8z"/>
		<path class="st4" d="M326.8,33.4h-12.4c-0.4,0-0.8-0.4-0.8-0.9s0.4-0.9,0.8-0.9h12.4c0.4,0,0.8,0.4,0.8,0.9S327.2,33.4,326.8,33.4
			z"/>
		<path class="st4" d="M326.8,37.9h-12.4c-0.4,0-0.8-0.4-0.8-0.9s0.4-0.9,0.8-0.9h12.4c0.4,0,0.8,0.4,0.8,0.9
			C327.6,37.5,327.2,37.9,326.8,37.9z"/>
	</g>
</g>
</svg>
