<?xml version="1.0" encoding="utf-8"?>
<!-- Generator: Adobe Illustrator 20.1.0, SVG Export Plug-In . SVG Version: 6.00 Build 0)  -->
<svg version="1.1" xmlns="http://www.w3.org/2000/svg" xmlns:xlink="http://www.w3.org/1999/xlink" x="0px" y="0px"
	 viewBox="0 0 50 50" style="enable-background:new 0 0 50 50;" xml:space="preserve">
<style type="text/css">
	.st0{display:none;}
	.st1{display:inline;}
	.st2{fill:#FFFFFF;stroke:#1D1D1B;stroke-width:0.25;stroke-miterlimit:10;}
	.st3{fill:none;stroke:#1D1D1B;stroke-width:0.25;stroke-miterlimit:10;}
	.st4{fill:#FFFFFF;}
	.st5{fill:#D8D8D8;}
</style>
<g id="Layer_2_1_" class="st0">
	<g class="st1">
		<rect x="0" y="0" class="st2" width="50" height="50"/>
		<circle class="st2" cx="25" cy="25" r="25"/>
		<line class="st3" x1="0" y1="0" x2="50" y2="50"/>
		<line class="st3" x1="50" y1="0" x2="0" y2="50"/>
		<rect x="0" y="12.7" class="st3" width="50" height="24.6"/>
		<line class="st3" x1="0" y1="25" x2="50" y2="25"/>
		<rect x="12.7" y="0" class="st3" width="24.6" height="50"/>
		<line class="st3" x1="25" y1="0" x2="25" y2="50"/>
		<rect x="7.3" y="7.3" class="st3" width="35.4" height="35.4"/>
		<circle class="st3" cx="25" cy="25" r="17.7"/>
		<circle class="st3" cx="25" cy="25" r="12.3"/>
	</g>
</g>
<g id="Layer_1">
	<g id="Layer_2" class="st0">
		<g class="st1">
			<rect class="st3" width="50" height="50"/>
			<circle class="st3" cx="25" cy="25" r="25"/>
			<line class="st3" x1="0" y1="0" x2="50" y2="50"/>
			<line class="st3" x1="50" y1="0" x2="0" y2="50"/>
			<rect y="12.7" class="st3" width="50" height="24.6"/>
			<line class="st3" x1="0" y1="25" x2="50" y2="25"/>
			<rect x="12.7" class="st3" width="24.6" height="50"/>
			<line class="st3" x1="25" y1="0" x2="25" y2="50"/>
			<rect x="7.3" y="7.3" class="st3" width="35.4" height="35.4"/>
			<circle class="st3" cx="25" cy="25" r="17.7"/>
			<circle class="st3" cx="25" cy="25" r="12"/>
		</g>
	</g>
	<g id="Layer_1_1_">
		<g id="Group_210" transform="translate(-1194.839 1230.241) rotate(-47)">
			
				<ellipse transform="matrix(-0.7314 -0.682 0.682 -0.7314 2922.5728 1278.6896)" class="st4" cx="1713.1" cy="63.8" rx="13" ry="13"/>
			<path class="st5" d="M1715.2,92.8V76.6c2.7-0.4,5.1-1.7,7.1-3.6c2.4-2.4,3.8-5.7,3.8-9.2c0-7.1-5.8-13-13-13
				c-3.5,0-6.7,1.3-9.2,3.8c-2.4,2.4-3.8,5.7-3.8,9.2c0,3.4,1.3,6.5,3.5,8.8c1.9,2.1,4.5,3.5,7.4,3.9v16.2L1715.2,92.8z
				 M1704.4,63.8c0-2.3,0.9-4.5,2.6-6.2s3.9-2.6,6.2-2.6c4.8,0,8.8,3.9,8.8,8.8s-3.9,8.8-8.8,8.8
				C1708.3,72.6,1704.4,68.6,1704.4,63.8z"/>
		</g>
	</g>
</g>
</svg>
