<?xml version="1.0" encoding="utf-8"?>
<!-- Generator: Adobe Illustrator 20.1.0, SVG Export Plug-In . SVG Version: 6.00 Build 0)  -->
<svg version="1.1" xmlns="http://www.w3.org/2000/svg" xmlns:xlink="http://www.w3.org/1999/xlink" x="0px" y="0px"
	 viewBox="0 0 50 50" style="enable-background:new 0 0 50 50;" xml:space="preserve">
<style type="text/css">
	.st0{display:none;}
	.st1{display:inline;}
	.st2{fill:none;stroke:#1D1D1B;stroke-width:0.25;stroke-miterlimit:10;}
	.st3{fill:none;}
	.st4{fill:#FFFFFF;}
</style>
<g id="Layer_2" class="st0">
	<g class="st1">
		<rect x="0" y="0" class="st2" width="50" height="50"/>
		<circle class="st2" cx="25" cy="25" r="25"/>
		<line class="st2" x1="0" y1="0" x2="50" y2="50"/>
		<line class="st2" x1="50" y1="0" x2="0" y2="50"/>
		<rect y="12.7" class="st2" width="50" height="24.6"/>
		<line class="st2" x1="0" y1="25" x2="50" y2="25"/>
		<rect x="12.7" class="st2" width="24.6" height="50"/>
		<line class="st2" x1="25" y1="0" x2="25" y2="50"/>
		<rect x="7.3" y="7.3" class="st2" width="35.4" height="35.4"/>
		<circle class="st2" cx="25" cy="25" r="17.7"/>
		<circle class="st2" cx="25" cy="25" r="12"/>
	</g>
</g>
<g id="Layer_1">
	<g id="Group_199_1_" transform="translate(0.029 0.008)">
		<g id="Group_194_1_" transform="translate(10.077 19.74) rotate(-47)">
			<g id="Ellipse_6_1_" transform="translate(0 0)">
				<path class="st3" d="M12.4,15c-1.7,1.7-3.9,2.6-6.3,2.6c-2.4,0-4.6-0.9-6.3-2.6c-1.7-1.7-2.6-3.9-2.6-6.3c0-4.9,4-8.9,8.9-8.9
					c2.4,0,4.6,0.9,6.3,2.6C14,4.1,15,6.3,15,8.7C15,11.1,14.1,13.3,12.4,15z"/>
				<path class="st4" d="M8.3,21.9c6.3-1,11.1-6.6,11.1-13.1c0-3.5-1.4-6.7-3.6-9.1C13.4-3,9.9-4.6,6.1-4.6c-7.4,0-13.3,6-13.3,13.4
					c0,3.4,1.3,6.6,3.6,9.1c0.1,0.1,0.2,0.2,0.3,0.3c2,2,4.5,3.3,7.2,3.7l0,15l4.4,0L8.3,21.9z M6.1,17.6c-2.4,0-4.6-0.9-6.3-2.6
					c-1.7-1.7-2.6-3.9-2.6-6.3c0-4.9,4-8.9,8.9-8.9c2.4,0,4.6,0.9,6.3,2.6C14,4.1,15,6.3,15,8.7c0,2.4-0.9,4.6-2.6,6.3
					C10.7,16.7,8.4,17.6,6.1,17.6z"/>
			</g>
		</g>
	</g>
</g>
</svg>
