<?xml version="1.0" encoding="utf-8"?>
<!-- Generator: Adobe Illustrator 20.1.0, SVG Export Plug-In . SVG Version: 6.00 Build 0)  -->
<svg version="1.1" xmlns="http://www.w3.org/2000/svg" xmlns:xlink="http://www.w3.org/1999/xlink" x="0px" y="0px"
	 viewBox="0 0 108.9 108.9" style="enable-background:new 0 0 108.9 108.9;" xml:space="preserve">
<style type="text/css">
	.st0{display:none;}
	.st1{display:inline;}
	.st2{fill:none;stroke:#1D1D1B;stroke-width:0.25;stroke-miterlimit:10;}
	.st3{fill:#B31F36;}
</style>
<g id="Layer_2" class="st0">
	<g class="st1">
		<rect x="0" y="0" class="st2" width="108.9" height="108.9"/>
		<circle class="st2" cx="54.5" cy="54.5" r="54.4"/>
		<line class="st2" x1="0" y1="0" x2="108.9" y2="108.9"/>
		<line class="st2" x1="108.9" y1="0" x2="0" y2="108.9"/>
		<rect y="27.6" class="st2" width="108.9" height="53.6"/>
		<line class="st2" x1="0" y1="54.5" x2="108.9" y2="54.5"/>
		<rect x="27.6" class="st2" width="53.6" height="108.9"/>
		<line class="st2" x1="54.5" y1="0" x2="54.5" y2="108.9"/>
		<rect x="15.9" y="15.9" class="st2" width="77" height="77"/>
		<circle class="st2" cx="54.5" cy="54.5" r="38.5"/>
		<circle class="st2" cx="54.5" cy="54.5" r="26.1"/>
	</g>
</g>
<g id="Layer_1">
	<g id="Group_242" transform="translate(-975.921 -2336.528)">
		<path class="st3" d="M1030.5,2393.4c-11.3,0-20.4-9.2-20.4-20.4s9.2-20.4,20.4-20.4s20.4,9.2,20.4,20.4
			S1041.8,2393.4,1030.5,2393.4z M1030.5,2357.3c-8.6,0-15.6,7-15.6,15.6s7,15.6,15.6,15.6s15.6-7,15.6-15.6
			S1039.1,2357.3,1030.5,2357.3z"/>
		<path class="st3" d="M1009.4,2429.5c-1.3,0-2.4-1.1-2.4-2.4c0-0.9-0.2-1.9-0.4-2.8l-2.7-7.9c-2.3-7,1.5-14.6,8.4-16.9
			c1.4-0.5,2.8-0.7,4.2-0.7h27.7h0c3.6,0,6.9,1.4,9.4,3.9c2.5,2.5,3.9,5.9,3.9,9.4c0,1.5-0.2,3-0.7,4.4l-2.5,7.2c-0.4,1-0.5,2-0.4,3
			c0.1,1.3-0.8,2.5-2.2,2.6c-1.3,0.1-2.5-0.8-2.6-2.2c-0.2-1.7,0.1-3.5,0.7-5.1l2.5-7.2c0.3-0.9,0.5-1.8,0.5-2.8
			c0-2.3-0.9-4.4-2.5-6c-1.6-1.6-3.7-2.5-6-2.5h0h-27.7c-0.9,0-1.8,0.1-2.7,0.4c-4.5,1.5-6.9,6.3-5.4,10.8l2.7,7.9
			c0.4,1.4,0.7,2.8,0.7,4.2C1011.8,2428.4,1010.7,2429.5,1009.4,2429.5C1009.4,2429.5,1009.4,2429.5,1009.4,2429.5z"/>
	</g>
</g>
</svg>
