<?xml version="1.0" encoding="utf-8"?>
<!-- Generator: Adobe Illustrator 20.1.0, SVG Export Plug-In . SVG Version: 6.00 Build 0)  -->
<svg version="1.1" xmlns="http://www.w3.org/2000/svg" xmlns:xlink="http://www.w3.org/1999/xlink" x="0px" y="0px"
	 viewBox="0 0 50 50" style="enable-background:new 0 0 50 50;" xml:space="preserve">
<style type="text/css">
	.st0{display:none;}
	.st1{display:inline;}
	.st2{fill:none;stroke:#1D1D1B;stroke-width:0.25;stroke-miterlimit:10;}
	.st3{fill:#FFFFFF;}
</style>
<g id="Layer_2" class="st0">
	<g class="st1">
		<rect x="0" y="0" class="st2" width="50" height="50"/>
		<circle class="st2" cx="25" cy="25" r="25"/>
		<line class="st2" x1="0" y1="0" x2="50" y2="50"/>
		<line class="st2" x1="50" y1="0" x2="0" y2="50"/>
		<rect y="12.7" class="st2" width="50" height="24.6"/>
		<line class="st2" x1="0" y1="25" x2="50" y2="25"/>
		<rect x="12.7" class="st2" width="24.6" height="50"/>
		<line class="st2" x1="25" y1="0" x2="25" y2="50"/>
		<rect x="7.3" y="7.3" class="st2" width="35.4" height="35.4"/>
		<circle class="st2" cx="25" cy="25" r="17.7"/>
		<circle class="st2" cx="25" cy="25" r="12"/>
	</g>
</g>
<g id="Layer_1">
	<path id="Path_4_1_" class="st3" d="M27.4,19.5c-0.1,0.6-0.1,1.1-0.1,1.7c0.5,0,1.1,0.1,1.6,0.1c0.5,0,1,0,1.5,0h0.1v3.8h-3.4v10.4
		c0,0-3.2,0-4.9,0V25.2h-2.9v-3.8c0.9-0.1,1.8-0.1,2.6-0.2c0.1-0.9,0.2-1.8,0.4-2.8c1-4.2,3.9-4.1,8.3-3.8v3.5
		C28.2,17.8,27.5,18.3,27.4,19.5z"/>
</g>
</svg>
