<?xml version="1.0" encoding="utf-8"?>
<!-- Generator: Adobe Illustrator 20.1.0, SVG Export Plug-In . SVG Version: 6.00 Build 0)  -->
<svg version="1.1" xmlns="http://www.w3.org/2000/svg" xmlns:xlink="http://www.w3.org/1999/xlink" x="0px" y="0px"
	 viewBox="0 0 50 50" style="enable-background:new 0 0 50 50;" xml:space="preserve">
<style type="text/css">
	.st0{display:none;}
	.st1{display:inline;}
	.st2{fill:none;stroke:#1D1D1B;stroke-width:0.25;stroke-miterlimit:10;}
	.st3{fill:#FFFFFF;}
</style>
<g id="Layer_2" class="st0">
	<g class="st1">
		<rect x="0" y="0" class="st2" width="50" height="50"/>
		<circle class="st2" cx="25" cy="25" r="25"/>
		<line class="st2" x1="0" y1="0" x2="50" y2="50"/>
		<line class="st2" x1="50" y1="0" x2="0" y2="50"/>
		<rect y="12.7" class="st2" width="50" height="24.6"/>
		<line class="st2" x1="0" y1="25" x2="50" y2="25"/>
		<rect x="12.7" class="st2" width="24.6" height="50"/>
		<line class="st2" x1="25" y1="0" x2="25" y2="50"/>
		<rect x="7.3" y="7.3" class="st2" width="35.4" height="35.4"/>
		<circle class="st2" cx="25" cy="25" r="17.7"/>
		<circle class="st2" cx="25" cy="25" r="12"/>
	</g>
</g>
<g id="Layer_1">
	<g id="Group_187_1_" transform="translate(1582.319 1017.801)">
		<g id="Group_64_1_">
			<g id="Group_63_1_">
				<g id="Group_62_1_">
					<path id="Path_531_1_" class="st3" d="M-1550.9-999.2c0.8-0.2,1.5-0.5,2.2-0.9c0,0,0.1,0,0.1,0c-0.3,0.9-0.9,1.6-1.6,2.1
						c0.7-0.1,1.5-0.3,2.1-0.6c0,0,0,0.1-0.1,0.1c-0.5,0.7-1.1,1.3-1.8,1.8c-0.1,0-0.1,0.1-0.1,0.2c0,0.4,0,0.9,0,1.3
						c0,0.5-0.1,0.9-0.2,1.4c-0.3,1.3-0.8,2.5-1.5,3.6c-0.7,1.1-1.6,2.1-2.7,2.9c-1,0.8-2.2,1.4-3.5,1.7c-0.8,0.2-1.6,0.4-2.4,0.4
						c0,0,0,0-0.1,0h-0.2c0,0,0,0-0.1,0h-0.5c0,0,0,0-0.1,0h-0.2c-0.1,0-0.2,0-0.3,0c-0.5-0.1-0.9-0.1-1.4-0.2
						c-1.2-0.3-2.3-0.7-3.4-1.3c-0.1,0-0.1-0.1-0.2-0.1c1,0.1,2,0,3-0.2c1-0.3,1.9-0.7,2.6-1.3c-0.1,0-0.3,0-0.4,0
						c-0.5-0.1-1-0.2-1.4-0.5c-0.8-0.5-1.4-1.2-1.7-2.1c0-0.1,0-0.1,0.1-0.1c0.5,0.1,1,0.1,1.5,0c0,0,0.1,0,0.1,0l-0.1,0
						c-0.8-0.2-1.6-0.7-2.1-1.4c-0.5-0.7-0.8-1.5-0.8-2.3c0-0.1,0-0.1,0.1,0c0.5,0.2,1,0.4,1.5,0.4c0,0,0.1,0,0.1,0c0,0,0,0,0-0.1
						c-0.2-0.1-0.4-0.3-0.6-0.5c-0.9-0.9-1.2-2.2-1-3.5c0.1-0.4,0.2-0.7,0.4-1c0-0.1,0.1-0.1,0.1,0c0.4,0.5,0.8,0.9,1.3,1.4
						c1.2,1,2.6,1.7,4.1,2.2c0.5,0.1,1.1,0.3,1.6,0.3c0.2,0,0.5,0,0.7,0.1c0.1,0,0.1,0,0.1-0.1c0-0.1-0.1-0.3-0.1-0.5
						c0-0.4,0-0.8,0.1-1.1c0.3-1.5,1.5-2.7,3-3c0.1,0,0.2,0,0.3-0.1h0.7c0.1,0,0.2,0,0.4,0.1c0.8,0.1,1.5,0.5,2.1,1.1
						C-1551-999.2-1550.9-999.2-1550.9-999.2"/>
				</g>
			</g>
		</g>
	</g>
</g>
</svg>
