<?xml version="1.0" encoding="utf-8"?>
<!-- Generator: Adobe Illustrator 20.1.0, SVG Export Plug-In . SVG Version: 6.00 Build 0)  -->
<svg version="1.1" xmlns="http://www.w3.org/2000/svg" xmlns:xlink="http://www.w3.org/1999/xlink" x="0px" y="0px"
	 viewBox="0 0 50 50" style="enable-background:new 0 0 50 50;" xml:space="preserve">
<style type="text/css">
	.st0{display:none;}
	.st1{display:inline;}
	.st2{fill:none;stroke:#1D1D1B;stroke-width:0.25;stroke-miterlimit:10;}
	.st3{fill:#FFFFFF;}
</style>
<g id="Layer_2" class="st0">
	<g class="st1">
		<rect x="0" y="0" class="st2" width="50" height="50"/>
		<circle class="st2" cx="25" cy="25" r="25"/>
		<line class="st2" x1="0" y1="0" x2="50" y2="50"/>
		<line class="st2" x1="50" y1="0" x2="0" y2="50"/>
		<rect y="12.7" class="st2" width="50" height="24.6"/>
		<line class="st2" x1="0" y1="25" x2="50" y2="25"/>
		<rect x="12.7" class="st2" width="24.6" height="50"/>
		<line class="st2" x1="25" y1="0" x2="25" y2="50"/>
		<rect x="7.3" y="7.3" class="st2" width="35.4" height="35.4"/>
		<circle class="st2" cx="25" cy="25" r="17.7"/>
		<circle class="st2" cx="25" cy="25" r="12"/>
	</g>
</g>
<g id="Layer_1">
	<g id="Atvf2x_2_" transform="translate(1700.424 1017.189)">
		<g id="Group_61">
			<path id="Path_527" class="st3" d="M-1678-983.5C-1678-983.5-1678-983.5-1678-983.5c1.2,0,2.3,0,3.5,0c0.2,0,0.2-0.1,0.2-0.2
				v-1.9c0-1.6,0-3.1,0-4.7c0-0.9,0.6-1.7,1.5-2c0.9-0.3,1.8,0.2,2.1,1.1c0,0,0,0.1,0,0.1c0.1,0.5,0.2,1,0.2,1.5c0,2,0,3.9,0,5.9
				c0,0.2,0.1,0.2,0.2,0.2c1.1,0,2.1,0,3.2,0c0.2,0,0.2,0,0.2-0.2c0-2.1,0-4.3,0-6.4c0-0.8-0.1-1.6-0.3-2.4c-0.3-1-0.9-1.8-1.7-2.3
				c-0.6-0.4-1.3-0.6-2.1-0.6c-1.3-0.1-2.5,0.6-3.2,1.7c0,0-0.1,0.1-0.1,0.1c0-0.4,0-0.9,0-1.3c0-0.2,0-0.2-0.2-0.2
				c-1.1,0-2.1,0-3.2,0c-0.1,0-0.1,0-0.2,0L-1678-983.5L-1678-983.5z M-1683.7-995.2v0.2c0,3.8,0,7.5,0,11.3c0,0.2,0,0.2,0.2,0.2
				c1.1,0,2.1,0,3.2,0c0.2,0,0.2-0.1,0.2-0.3c0-3.7,0-7.5,0-11.2v-0.2C-1681.2-995.2-1682.4-995.2-1683.7-995.2L-1683.7-995.2z
				 M-1683.9-998.9c0,0.7,0.3,1.3,0.9,1.7c0.8,0.5,1.7,0.4,2.5-0.1c0.9-0.8,1-2.1,0.2-3c-0.1-0.1-0.1-0.1-0.2-0.2
				c-0.5-0.4-1.1-0.5-1.7-0.4C-1683.2-1000.7-1683.9-999.8-1683.9-998.9z"/>
		</g>
	</g>
</g>
</svg>
