<?xml version="1.0" encoding="utf-8"?>
<!-- Generator: Adobe Illustrator 20.1.0, SVG Export Plug-In . SVG Version: 6.00 Build 0)  -->
<svg version="1.1" xmlns="http://www.w3.org/2000/svg" xmlns:xlink="http://www.w3.org/1999/xlink" x="0px" y="0px"
	 viewBox="0 0 50 50" style="enable-background:new 0 0 50 50;" xml:space="preserve">
<style type="text/css">
	.st0{display:none;}
	.st1{display:inline;}
	.st2{fill:none;stroke:#1D1D1B;stroke-width:0.25;stroke-miterlimit:10;}
	.st3{fill:#FFFFFF;}
	.st4{fill:#D0202D;}
	.st5{fill:#273476;}
	.st6{fill:none;stroke:#D1D3D4;stroke-width:0.5;stroke-miterlimit:10;}
</style>
<g id="Layer_2_1_" class="st0">
	<g class="st1">
		<rect x="0" y="0" class="st2" width="50" height="50"/>
		<circle class="st2" cx="25" cy="25" r="25"/>
		<line class="st2" x1="0" y1="0" x2="50" y2="50"/>
		<line class="st2" x1="50" y1="0" x2="0" y2="50"/>
		<rect y="12.7" class="st2" width="50" height="24.6"/>
		<line class="st2" x1="0" y1="25" x2="50" y2="25"/>
		<rect x="12.7" class="st2" width="24.6" height="50"/>
		<line class="st2" x1="25" y1="0" x2="25" y2="50"/>
		<rect x="7.3" y="7.3" class="st2" width="35.4" height="35.4"/>
		<circle class="st2" cx="25" cy="25" r="17.7"/>
		<circle class="st2" cx="25" cy="25" r="12"/>
	</g>
</g>
<g id="Layer_1">
	<g id="Layer_2" class="st0">
		<g class="st1">
			<rect class="st2" width="50" height="50"/>
			<circle class="st2" cx="25" cy="25" r="25"/>
			<line class="st2" x1="0" y1="0" x2="50" y2="50"/>
			<line class="st2" x1="50" y1="0" x2="0" y2="50"/>
			<rect y="12.7" class="st2" width="50" height="24.6"/>
			<line class="st2" x1="0" y1="25" x2="50" y2="25"/>
			<rect x="12.7" class="st2" width="24.6" height="50"/>
			<line class="st2" x1="25" y1="0" x2="25" y2="50"/>
			<rect x="7.3" y="7.3" class="st2" width="35.4" height="35.4"/>
			<circle class="st2" cx="25" cy="25" r="17.7"/>
			<circle class="st2" cx="25" cy="25" r="12"/>
		</g>
	</g>
	<g id="Layer_1_1_">
		<g>
			<g>
				<polygon class="st3" points="42.1,35.5 42.8,35.8 7.4,35.8 7.7,34.8 7.7,14.4 8,14.4 7.4,14.1 42.8,14.1 42.1,14.4 42.5,14.4 
					42.5,35.5 				"/>
				<polygon class="st4" points="42.5,22.7 42.5,27.1 27.2,27.1 27.2,35.8 22.9,35.8 22.9,27.1 7.7,27.1 7.7,22.7 22.9,22.7 
					22.9,14.1 27.2,14.1 27.2,22.7 				"/>
				<polygon class="st5" points="42.8,14.1 42.1,14.4 28.7,21.1 28.7,14.1 				"/>
				<polygon class="st5" points="42.8,35.8 28.7,35.8 28.7,28.8 				"/>
				<polygon id="_x31_0" class="st5" points="21.4,28.8 21.4,35.8 7.4,35.8 				"/>
				<polygon class="st5" points="21.4,14.1 21.4,21.1 8,14.4 7.4,14.1 				"/>
				<polygon class="st5" points="13.8,21.3 7.7,21.3 7.7,18.3 				"/>
				<polygon class="st5" points="42.5,18.2 42.5,21.3 36.4,21.3 				"/>
				<polygon class="st5" points="42.5,28.6 42.5,31.6 36.4,28.6 				"/>
				<polygon class="st5" points="13.8,28.6 7.7,31.6 7.7,28.6 				"/>
				<polygon class="st4" points="29.9,21.3 42.5,15 42.5,16.2 32.4,21.3 				"/>
				<polygon class="st4" points="20.2,28.6 7.7,34.8 7.7,33.6 17.8,28.6 				"/>
				<polygon class="st4" points="17.8,21.3 15.4,21.3 7.7,17.4 7.7,16.2 				"/>
				<polygon class="st4" points="42.5,32.4 42.5,33.6 32.3,28.6 34.7,28.6 				"/>
			</g>
			<rect x="7.6" y="14.3" class="st6" width="35" height="21.4"/>
		</g>
	</g>
</g>
</svg>
