<?xml version="1.0" encoding="utf-8"?>
<!-- Generator: Adobe Illustrator 20.1.0, SVG Export Plug-In . SVG Version: 6.00 Build 0)  -->
<svg version="1.1" xmlns="http://www.w3.org/2000/svg" xmlns:xlink="http://www.w3.org/1999/xlink" x="0px" y="0px"
	 viewBox="0 0 20 20" style="enable-background:new 0 0 20 20;" xml:space="preserve">
<style type="text/css">
	.st0{display:none;}
	.st1{display:inline;fill:#FFFFFF;stroke:#1D1D1B;stroke-width:0.25;stroke-miterlimit:10;}
	.st2{display:inline;fill:none;stroke:#1D1D1B;stroke-width:0.25;stroke-miterlimit:10;}
	.st3{display:inline;}
	.st4{fill:#FFFFFF;stroke:#1D1D1B;stroke-width:0.25;stroke-miterlimit:10;}
	.st5{fill:none;stroke:#1D1D1B;stroke-width:0.25;stroke-miterlimit:10;}
	.st6{fill:#FFFFFF;}
</style>
<g id="Layer_2_1_" class="st0">
	<rect x="0.1" y="0" class="st1" width="19.9" height="19.9"/>
	<circle class="st1" cx="10" cy="10" r="10"/>
	<line class="st2" x1="0.1" y1="0" x2="20" y2="19.9"/>
	<line class="st2" x1="20" y1="0" x2="0.1" y2="19.9"/>
	<rect x="0.1" y="5.1" class="st2" width="19.9" height="9.8"/>
	<line class="st2" x1="0.1" y1="10" x2="20" y2="10"/>
	<rect x="5.1" class="st2" width="9.8" height="19.9"/>
	<line class="st2" x1="10" y1="0" x2="10" y2="19.9"/>
	<rect x="3" y="2.9" class="st2" width="14.1" height="14.1"/>
	<circle class="st2" cx="10" cy="10" r="7"/>
	<circle class="st2" cx="10" cy="10" r="4.9"/>
</g>
<g id="Layer_1">
	<g id="Layer_2" class="st0">
		<g class="st3">
			<rect class="st4" width="20" height="20"/>
			<circle class="st4" cx="10" cy="10" r="10"/>
			<line class="st5" x1="0" y1="0" x2="20" y2="20"/>
			<line class="st5" x1="20" y1="0" x2="0" y2="20"/>
			<rect y="5.1" class="st5" width="20" height="9.8"/>
			<line class="st5" x1="0" y1="10" x2="20" y2="10"/>
			<rect x="5.1" class="st5" width="9.8" height="20"/>
			<line class="st5" x1="10" y1="0" x2="10" y2="20"/>
			<rect x="2.9" y="2.9" class="st5" width="14.1" height="14.1"/>
			<circle class="st5" cx="10" cy="10" r="7.1"/>
			<circle class="st5" cx="10" cy="10" r="4.9"/>
		</g>
	</g>
	<g>
		<path class="st6" d="M3.9,7C4.3,7,4.7,6.9,5.3,6.9c0.7,0,1.2,0.2,1.5,0.4C7.1,7.6,7.2,8,7.2,8.5c0,0.5-0.1,0.9-0.4,1.1
			c-0.4,0.4-1,0.6-1.6,0.6c-0.2,0-0.4,0-0.6,0v2.1H3.9V7z M4.6,9.6c0.2,0,0.3,0.1,0.6,0.1c0.8,0,1.3-0.4,1.3-1.1c0-0.7-0.5-1-1.3-1
			c-0.3,0-0.5,0-0.6,0.1V9.6z"/>
		<path class="st6" d="M8.2,7C8.6,7,9.1,6.9,9.6,6.9c1,0,1.7,0.2,2.2,0.7c0.5,0.4,0.8,1.1,0.8,1.9c0,0.9-0.3,1.6-0.8,2.1
			c-0.5,0.5-1.3,0.8-2.4,0.8c-0.5,0-0.9,0-1.3-0.1V7z M8.8,11.7c0.2,0,0.4,0,0.7,0c1.5,0,2.3-0.8,2.3-2.3c0-1.3-0.7-2.1-2.2-2.1
			c-0.4,0-0.6,0-0.8,0.1V11.7z"/>
		<path class="st6" d="M13.4,7h2.9v0.6h-2.2v1.8h2v0.6h-2v2.4h-0.7V7z"/>
	</g>
</g>
</svg>
