<?xml version="1.0" encoding="utf-8"?>
<!-- Generator: Adobe Illustrator 20.1.0, SVG Export Plug-In . SVG Version: 6.00 Build 0)  -->
<svg version="1.1" id="Layer_1" xmlns="http://www.w3.org/2000/svg" xmlns:xlink="http://www.w3.org/1999/xlink" x="0px" y="0px"
	 viewBox="0 0 221.1 51.6" style="enable-background:new 0 0 221.1 51.6;" xml:space="preserve">
<style type="text/css">
	.st0{fill:#FFFFFF;}
</style>
<g>
	<path class="st0" d="M41.6,36.8c0.8,0.5,1.6,0.4,2.1,0.2s1.5-1,2.2-2c0.3-0.4,2.8-3.3-0.1-6.5L35.6,18.3c0.8,0,1.6-2.2,0.3-3.6
		L26,4.9c-1.6-1.4-2.3-2.1-3.5-2.1h-1.6c-0.7,0-1.1,0.6-1.1,1.3v8.1c0,0.8,0,1.5,0.6,1.9H2.5c-0.5,0-1,0.1-1.2,0.7
		c-0.2,0.6,0,0.9,0.2,1.3l12.2,17.1h8.9l6.4-4.6l0.6,0.6c0,0-23.4,17.2-23.3,17.2c-0.5,0.4-0.6,1.1-0.4,1.5s0.5,1,1.1,1h12.9
		c1.1,0,2.4-0.9,2.4-2.1v-3.6c0-1.3,0.1-1.3,1.8-1.3h2.7c-0.8,0.4-2.2,1.1-2.2,1.2c-0.1,0-0.1,0.3-0.2,0.5c-0.1,0.3-0.5,1.6-0.6,1.7
		c-0.1,0.1-0.1,0.3-0.1,0.5s0,0.6,0,0.6h23v-1.7H25.5c0,0,0.2-0.5,0.4-0.6C26,44,29.1,42.5,30,42h1.2c2.5,0,4.1-0.6,5.4-2.7
		c0,0,2.6-4.7,2.8-4.9c0.3-0.3,0.9-1,2.1-0.9c0.9,0.1,1.7,0.8,1.9,1.6s-0.2,1.1-0.3,1.2C42.9,36.4,42.1,36.7,41.6,36.8"/>
	<path class="st0" d="M3.3,15.8l11.3,15.8H22l7.2-5.3l2.5,3.2l-24,17.8h10.9c1.2,0,1.8-0.4,1.8-1.5v-3.5c0-1.8,1.1-2.1,2.9-2.1h3.5
		h4.3c1.2,0,2.8-0.3,3.6-1.1c0.7-0.7,2.3-4,3-5.2c0.3-0.6,0.9-2,3.6-2c1.8,0,3.1,1.7,3.4,2.5c0.8-0.8,2.1-2.8,0.1-4.9L33.3,18.3
		c-2.4-2.2-5.9-2.5-7.4-2.5C25.9,15.8,3.3,15.8,3.3,15.8 M23,4.5c1.1,0.4,7.6,7.2,7.6,7.2c3,3.1,4.8,4.3,3.7,5.4
		c-1.5-1.3-4-2.9-7.7-2.9H23c-0.9,0-1.5-0.4-1.5-1.5V4.4C21.5,4.4,22.4,4.3,23,4.5"/>
	<path class="st0" d="M51.3,20.6h7.4h6.7c4.4,0,3.3,3.2,2.6,4.1c-2,2.2-3.8,2.9-5.3,3.8v-6.6h-7.3V42h7.3v-6.5
		c0.7-0.3,5.2-2.7,7.1-3.8c0.6-0.4,3.8-2.3,5.6-5.5c1.4-2.5,1.1-5.7,0-7.6c-1.1-2-3.8-4.3-7.7-4.3c0.1,0-12.4,0-12.4,0
		c-1.5,0-2.5,0.7-2.9,2.1C52.4,16.3,51.3,20.6,51.3,20.6"/>
	<path class="st0" d="M170.8,22c-0.2-2.6-0.9-4.1-2.8-5.7c-1.4-1.2-4.1-2.2-7.2-2.2h-16h-10.4c-2.5,0-5.8,0.5-7.1,3
		c-1.4,2.4-1.1,5.6,0.8,7.8c0,0,7.4,8.3,7.3,8.3c0.8,1.1,0.3,2.2-0.8,2.2h-11.4V14.2h-7.3V24l-8.1-9.8H72.7c3.1,1.1,4.6,3.8,4.8,6.4
		h0.7h0.9v21.3h17.6l1.7-6.4h-12v-4.4h8.4l1.5-6.4h-9.9v-4.1h14.3v21.3h7.3v-17l7.8,8.9v8.1h20.3c2.8,0,6.2-0.5,7.7-2.9
		c1.4-2.3,0.8-5.2-1.1-7.8c0.1,0-7.3-8.3-7.3-8.3c-0.7-1-0.9-2.2,1-2.2c-0.1,0,21.2,0,21.2,0c4.5,0,4.7,2.4,4.8,3.4
		c0.5,4-0.2,7-0.6,8.3c-0.9,3-2.7,3.8-3.7,3.8s-2.7-0.7-3.7-3.9c-0.5-1.7-1.4-7.2-0.1-10.4h-8.9c-0.3,7.7,1.1,11.4,2.4,13.8
		c2.5,4.5,5.9,7,10.3,7c5.1,0,7.8-2.5,10.4-7C169.8,33.2,171.3,28.7,170.8,22"/>
	<path class="st0" d="M167.3,14.2c3,1.4,4.6,3.3,5,6.4h2.3V41c0,3.2,0.7,4.7,1.2,5.9l7-4.3c-0.6-1.5-0.8-3.2-0.8-4.1v-7h8.6l1.8-6.4
		H182v-4.5h17.7v21.3h7.3V20.6h9.5l-1.1-4.5c-0.4-1.4-1.5-1.9-3-1.9h-12.2L167.3,14.2L167.3,14.2z"/>
	<rect x="181.4" y="44.6" class="st0" width="25.5" height="1.7"/>
	<polygon class="st0" points="46.3,44.6 173.4,44.6 173.4,46.3 46.3,46.3 	"/>
	<path class="st0" d="M213.3,44.3h0.8v-1.4h0.8c0.6,0,0.6,0.2,0.6,0.7c0,0.4,0,0.6,0.1,0.7h0.8v-0.1c-0.2-0.1-0.2-0.2-0.2-0.7
		c0-0.7-0.1-0.8-0.5-0.9c0.4-0.1,0.6-0.5,0.6-0.9c0-0.3-0.2-1-1.1-1h-1.8L213.3,44.3L213.3,44.3z M214.1,42.3v-1h0.9
		c0.4,0,0.5,0.3,0.5,0.5c0,0.4-0.2,0.5-0.6,0.5C215,42.3,214.1,42.3,214.1,42.3z M211.7,42.6c0,1.7,1.4,3.1,3.1,3.1
		c1.7,0,3.1-1.4,3.1-3.1s-1.4-3.1-3.1-3.1C213.1,39.5,211.7,40.9,211.7,42.6 M218.8,42.6c0,2.2-1.8,4-4.1,4c-2.2,0-4-1.8-4-4
		s1.8-4,4-4C217,38.5,218.8,40.3,218.8,42.6"/>
</g>
</svg>
